<svg width="281" height="102" viewBox="0 0 281 102" fill="none" xmlns="http://www.w3.org/2000/svg">
<path d="M0.390562 23.4528C1.59324 24.2425 2.85792 24.983 4.18459 25.674C5.51126 26.3527 6.88133 26.9451 8.29479 27.451C9.72065 27.957 11.1775 28.358 12.6654 28.6542C14.1656 28.938 15.6907 29.0799 17.2405 29.0799C17.8357 29.0799 18.406 29.0429 18.9516 28.9689C19.5095 28.8948 19.9931 28.7776 20.4022 28.6172C20.8238 28.4444 21.1585 28.2223 21.4065 27.9508C21.6669 27.667 21.7971 27.3276 21.7971 26.9327C21.7971 26.5749 21.6917 26.217 21.4809 25.8591C21.2701 25.4889 20.861 25.1372 20.2534 24.804C19.6583 24.4708 18.8214 24.1623 17.7427 23.8785C16.664 23.5823 15.2629 23.3232 13.5395 23.1011C11.2333 22.8049 9.2309 22.4223 7.53227 21.9534C5.83363 21.4845 4.42637 20.886 3.31048 20.1579C2.19459 19.4298 1.36387 18.5537 0.81832 17.5294C0.272773 16.5052 0 15.2896 0 13.8829C0 12.5378 0.30377 11.3346 0.911311 10.2733C1.53125 9.1997 2.41776 8.29269 3.57085 7.55227C4.72394 6.81185 6.125 6.2442 7.77404 5.84931C9.42308 5.45442 11.2829 5.25697 13.3535 5.25697C14.209 5.25697 15.0707 5.30633 15.9386 5.40506C16.8066 5.49144 17.6621 5.61484 18.5052 5.77527C19.3483 5.93569 20.1728 6.12697 20.9788 6.34909C21.7847 6.55888 22.541 6.781 23.2477 7.01547L26.893 5.01634H29.4409V13.9014C28.1143 13.1239 26.7752 12.439 25.4237 11.8467C24.0847 11.2544 22.7518 10.7608 21.4251 10.3659C20.1108 9.95863 18.8214 9.65629 17.5567 9.45885C16.3044 9.24906 15.1079 9.14417 13.9672 9.14417C13.2233 9.14417 12.5476 9.1997 11.94 9.31077C11.3449 9.42183 10.8365 9.56991 10.415 9.75502C10.0058 9.94012 9.68966 10.1622 9.46648 10.4214C9.2433 10.6682 9.13171 10.9335 9.13171 11.2173C9.13171 11.6246 9.2433 11.9948 9.46648 12.328C9.68966 12.6488 10.1236 12.9512 10.7684 13.235C11.4131 13.5188 12.3182 13.7965 13.4837 14.068C14.6492 14.3271 16.1742 14.6109 18.0588 14.9194C19.3111 15.1292 20.5076 15.3513 21.6483 15.5858C22.789 15.8203 23.8491 16.1041 24.8286 16.4373C25.8081 16.7581 26.6884 17.1469 27.4695 17.6035C28.263 18.06 28.9388 18.6092 29.4967 19.2509C30.0547 19.8926 30.4824 20.6453 30.78 21.5092C31.09 22.373 31.245 23.3787 31.245 24.5264C31.245 26.0566 30.873 27.3708 30.1291 28.4691C29.3851 29.5674 28.3808 30.4682 27.1162 31.1716C25.8515 31.875 24.376 32.3933 22.6898 32.7265C21.016 33.0597 19.2491 33.2263 17.3893 33.2263C15.6535 33.2263 13.899 33.0412 12.126 32.671C10.353 32.3131 8.65436 31.7269 7.03011 30.9125L4.0544 32.7635H0.390562V23.4528Z" fill="white"/>
<path d="M38.9446 27.9878V7.88546L34.0719 3.73911L47.63 3.1838V21.4721L54.6043 16.1226L51.4984 12.0133H66.0422L55.6458 19.9358L64.7403 29.8389L68.1624 32.5044H51.9447L53.8789 29.8019L49.4712 24.6559L47.63 26.0627V28.5431L50.6801 32.5044H33.9045L38.9446 27.9878Z" fill="white"/>
<path d="M76.5501 31.2642C76.4014 31.8072 76.327 32.3378 76.327 32.8561C76.327 33.4484 76.4076 34.0099 76.5687 34.5405C76.7299 35.0835 76.9903 35.5586 77.3499 35.9658C77.7094 36.3731 78.1682 36.6939 78.7261 36.9284C79.2965 37.1752 79.9908 37.2986 80.8091 37.2986C81.4911 37.2986 82.0924 37.1628 82.6131 36.8914C83.1339 36.6322 83.5864 36.2805 83.9708 35.8363C84.3676 35.4044 84.6961 34.8984 84.9565 34.3184C85.2293 33.7384 85.4463 33.1337 85.6075 32.5044H79.7118L72.5329 16.0301L67.7904 12.0133H84.3242L82.1482 15.086L86.6118 28.5617L90.3128 15.2156L88.0624 12.0133H101.62L97.2499 15.5858L91.0381 32.5044C90.381 34.3061 89.6495 35.7746 88.8435 36.9099C88.0376 38.0575 87.1449 38.9522 86.1654 39.5939C85.1983 40.2479 84.1382 40.6922 82.9851 40.9266C81.8444 41.1735 80.5983 41.2969 79.2469 41.2969C77.635 41.2969 76.1968 41.1179 74.9321 40.7601C73.6798 40.4145 72.6197 39.9147 71.7518 39.2607C70.8839 38.619 70.2206 37.8354 69.7618 36.9099C69.3154 35.9967 69.0923 34.9663 69.0923 33.8186C69.0923 33.5348 69.1109 33.2263 69.1481 32.8931C69.1977 32.5599 69.2473 32.2637 69.2968 32.0046L76.5501 31.2642Z" fill="white"/>
<path d="M102.234 22.5087C102.234 20.9045 102.501 19.4237 103.034 18.0662C103.58 16.6964 104.348 15.5118 105.34 14.5122C106.344 13.5126 107.547 12.729 108.948 12.1614C110.349 11.5814 111.918 11.2914 113.654 11.2914C114.546 11.2914 115.414 11.3716 116.257 11.532C117.1 11.6801 117.894 11.9207 118.638 12.2539C119.394 12.5748 120.082 12.9943 120.702 13.5126C121.335 14.0309 121.886 14.6603 122.357 15.4007V7.88546L117.485 3.73911L131.229 3.1838V27.9878L136.269 32.5044H122.357V29.117C121.477 30.5114 120.33 31.548 118.917 32.2267C117.516 32.8931 115.947 33.2263 114.211 33.2263C112.104 33.2263 110.293 32.9363 108.781 32.3563C107.268 31.7763 106.028 30.9989 105.061 30.024C104.094 29.0368 103.381 27.8953 102.922 26.5995C102.464 25.3038 102.234 23.9402 102.234 22.5087ZM112.017 22.2681C112.017 23.28 112.141 24.1685 112.389 24.9336C112.649 25.6987 113.009 26.3404 113.468 26.8587C113.926 27.3646 114.472 27.7472 115.104 28.0063C115.737 28.2655 116.431 28.3951 117.187 28.3951C117.82 28.3951 118.439 28.284 119.047 28.0619C119.667 27.8397 120.219 27.488 120.702 27.0068C121.198 26.5132 121.595 25.8776 121.893 25.1002C122.202 24.3228 122.357 23.3787 122.357 22.2681C122.357 21.1204 122.209 20.1517 121.911 19.3619C121.626 18.5598 121.242 17.912 120.758 17.4184C120.287 16.9124 119.741 16.5484 119.121 16.3262C118.501 16.0918 117.857 15.9745 117.187 15.9745C116.431 15.9745 115.737 16.1103 115.104 16.3818C114.472 16.6533 113.926 17.0605 113.468 17.6035C113.009 18.1341 112.649 18.7943 112.389 19.5841C112.141 20.3615 112.017 21.2562 112.017 22.2681Z" fill="#0DEE23"/>
<path d="M146.349 9.64395C145.68 9.64395 145.047 9.52055 144.452 9.27374C143.869 9.0146 143.361 8.66907 142.927 8.23716C142.493 7.80525 142.146 7.29929 141.886 6.7193C141.638 6.12697 141.514 5.49761 141.514 4.83123C141.514 4.16486 141.638 3.54167 141.886 2.96167C142.146 2.36934 142.493 1.85722 142.927 1.42531C143.361 0.981055 143.869 0.635526 144.452 0.38872C145.047 0.129573 145.68 0 146.349 0C147.019 0 147.645 0.129573 148.228 0.38872C148.823 0.635526 149.337 0.981055 149.771 1.42531C150.218 1.85722 150.565 2.36934 150.813 2.96167C151.073 3.54167 151.203 4.16486 151.203 4.83123C151.203 5.49761 151.073 6.12697 150.813 6.7193C150.565 7.29929 150.218 7.80525 149.771 8.23716C149.337 8.66907 148.823 9.0146 148.228 9.27374C147.645 9.52055 147.019 9.64395 146.349 9.64395ZM142.425 27.9878V16.715L137.552 12.5686L151.11 12.0133V27.9878L156.15 32.5044H137.385L142.425 27.9878Z" fill="#0DEE23"/>
<path d="M160.633 16.7335L155.388 12.0133H172.349L170.285 14.9379L175.288 27.8397L179.175 15.6969L176.274 12.0133H190.948L186.131 15.845L179.249 32.5044H168.667L160.633 16.7335Z" fill="#0DEE23"/>
<path d="M200.023 9.64395C199.354 9.64395 198.722 9.52055 198.126 9.27374C197.544 9.0146 197.035 8.66907 196.601 8.23716C196.167 7.80525 195.82 7.29929 195.56 6.7193C195.312 6.12697 195.188 5.49761 195.188 4.83123C195.188 4.16486 195.312 3.54167 195.56 2.96167C195.82 2.36934 196.167 1.85722 196.601 1.42531C197.035 0.981055 197.544 0.635526 198.126 0.38872C198.722 0.129573 199.354 0 200.023 0C200.693 0 201.319 0.129573 201.902 0.38872C202.497 0.635526 203.012 0.981055 203.446 1.42531C203.892 1.85722 204.239 2.36934 204.487 2.96167C204.747 3.54167 204.878 4.16486 204.878 4.83123C204.878 5.49761 204.747 6.12697 204.487 6.7193C204.239 7.29929 203.892 7.80525 203.446 8.23716C203.012 8.66907 202.497 9.0146 201.902 9.27374C201.319 9.52055 200.693 9.64395 200.023 9.64395ZM196.099 27.9878V16.715L191.227 12.5686L204.785 12.0133V27.9878L209.825 32.5044H191.059L196.099 27.9878Z" fill="#0DEE23"/>
<path d="M215.739 27.9878V16.715L210.866 12.5686L224.61 12.0133V16.0301C225.503 14.5122 226.675 13.346 228.125 12.5316C229.588 11.7048 231.262 11.2914 233.147 11.2914C234.585 11.2914 235.862 11.5135 236.978 11.9578C238.106 12.3897 239.049 13.0437 239.805 13.9199C240.574 14.7837 241.156 15.8696 241.553 17.1777C241.95 18.4734 242.148 19.979 242.148 21.6943V27.9878L247.189 32.5044H229.855L233.277 27.9878V22.083C233.277 21.2932 233.203 20.5466 233.054 19.8432C232.905 19.1398 232.67 18.5228 232.347 17.9922C232.037 17.4615 231.634 17.042 231.138 16.7335C230.642 16.425 230.047 16.2707 229.353 16.2707C228.659 16.2707 228.02 16.425 227.437 16.7335C226.854 17.0296 226.352 17.4677 225.931 18.0477C225.509 18.6154 225.181 19.3188 224.945 20.1579C224.722 20.9847 224.61 21.9349 224.61 23.0085V27.9878L228.032 32.5044H210.699L215.739 27.9878Z" fill="#0DEE23"/>
<path d="M247.858 36.4286C247.858 35.8856 248.025 35.392 248.36 34.9478C248.695 34.5035 249.148 34.1025 249.718 33.7446C250.288 33.3867 250.952 33.072 251.708 32.8005C252.464 32.5291 253.264 32.3008 254.107 32.1157C253.388 31.9676 252.737 31.7886 252.154 31.5789C251.571 31.3691 251.069 31.1223 250.648 30.8384C250.239 30.5546 249.916 30.2338 249.681 29.8759C249.457 29.518 249.346 29.1231 249.346 28.6912C249.346 28.1853 249.501 27.7349 249.811 27.34C250.133 26.9327 250.542 26.581 251.038 26.2849C251.547 25.9887 252.117 25.7481 252.749 25.563C253.382 25.3779 254.014 25.2483 254.646 25.1742C253.977 24.8657 253.369 24.5017 252.824 24.0821C252.278 23.6625 251.807 23.1998 251.41 22.6938C251.014 22.1755 250.704 21.6141 250.48 21.0094C250.27 20.3924 250.164 19.726 250.164 19.0103C250.164 17.7269 250.511 16.6039 251.206 15.6413C251.9 14.6665 252.818 13.8582 253.958 13.2165C255.099 12.5748 256.395 12.0935 257.845 11.7727C259.296 11.4518 260.784 11.2914 262.309 11.2914C263.71 11.2914 265.08 11.4271 266.419 11.6986C267.771 11.9701 268.998 12.3835 270.101 12.9388C270.238 12.2231 270.498 11.6061 270.883 11.0878C271.267 10.5695 271.72 10.1437 272.24 9.81055C272.773 9.47736 273.35 9.23055 273.97 9.07013C274.602 8.90971 275.228 8.82949 275.848 8.82949C276.642 8.82949 277.355 8.91588 277.987 9.08864C278.619 9.2614 279.159 9.52672 279.605 9.88459C280.052 10.2301 280.392 10.6682 280.628 11.1988C280.876 11.7295 281 12.3465 281 13.0499C281 13.309 280.975 13.5867 280.926 13.8829C280.876 14.1667 280.795 14.469 280.684 14.7899L275.941 15.8635C275.978 15.6043 275.997 15.3575 275.997 15.1231C275.997 14.7035 275.941 14.3518 275.83 14.068C275.718 13.7718 275.576 13.5312 275.402 13.346C275.228 13.1609 275.03 13.0314 274.807 12.9573C274.584 12.8709 274.36 12.8278 274.137 12.8278C273.641 12.8278 273.238 12.9758 272.928 13.272C272.618 13.5558 272.395 13.9137 272.259 14.3456C272.953 14.9503 273.493 15.6413 273.877 16.4188C274.274 17.1839 274.472 18.0477 274.472 19.0103C274.472 20.2936 274.119 21.4166 273.412 22.3792C272.718 23.3417 271.794 24.15 270.641 24.804C269.5 25.4457 268.198 25.927 266.735 26.2478C265.272 26.5687 263.778 26.7291 262.253 26.7291C260.306 26.7291 258.465 26.4761 256.729 25.9702C256.593 26.0689 256.481 26.1738 256.395 26.2849C256.32 26.3959 256.283 26.5193 256.283 26.6551C256.283 26.9636 256.426 27.2351 256.711 27.4695C257.008 27.6917 257.517 27.8829 258.236 28.0434C258.955 28.1914 259.928 28.3025 261.156 28.3765C262.383 28.4506 263.927 28.4876 265.787 28.4876C268.341 28.4876 270.48 28.611 272.203 28.8578C273.939 29.0923 275.334 29.4563 276.388 29.9499C277.442 30.4312 278.192 31.0359 278.638 31.764C279.097 32.492 279.326 33.3435 279.326 34.3184C279.326 35.6018 278.942 36.6816 278.173 37.5577C277.417 38.4462 276.313 39.1682 274.863 39.7235C273.424 40.2788 271.664 40.6798 269.581 40.9266C267.51 41.1735 265.161 41.2969 262.532 41.2969C260.3 41.2969 258.279 41.1981 256.469 41.0007C254.671 40.8032 253.134 40.5009 251.857 40.0937C250.58 39.6988 249.594 39.1928 248.9 38.5758C248.205 37.9711 247.858 37.2554 247.858 36.4286ZM258.087 19.0103C258.087 19.7383 258.199 20.3677 258.422 20.8983C258.645 21.429 258.949 21.867 259.333 22.2126C259.717 22.5581 260.164 22.8111 260.672 22.9715C261.193 23.1319 261.738 23.2121 262.309 23.2121C262.879 23.2121 263.419 23.1257 263.927 22.953C264.448 22.7802 264.9 22.5211 265.285 22.1755C265.669 21.83 265.973 21.3981 266.196 20.8798C266.419 20.3492 266.531 19.726 266.531 19.0103C266.531 18.2698 266.425 17.6281 266.214 17.0852C266.004 16.5422 265.706 16.0918 265.322 15.7339C264.95 15.376 264.503 15.1107 263.983 14.9379C263.474 14.7652 262.916 14.6788 262.309 14.6788C261.738 14.6788 261.193 14.7652 260.672 14.9379C260.164 15.1107 259.717 15.376 259.333 15.7339C258.949 16.0918 258.645 16.5422 258.422 17.0852C258.199 17.6281 258.087 18.2698 258.087 19.0103ZM256.971 34.8552C256.971 35.2748 257.052 35.6697 257.213 36.0399C257.387 36.4101 257.696 36.7309 258.143 37.0024C258.589 37.2739 259.197 37.4837 259.965 37.6318C260.747 37.7922 261.751 37.8724 262.978 37.8724C263.896 37.8724 264.826 37.8416 265.768 37.7799C266.723 37.7305 267.585 37.6194 268.353 37.4467C269.122 37.2863 269.748 37.0456 270.232 36.7248C270.715 36.4163 270.957 36.0029 270.957 35.4846C270.957 34.9663 270.814 34.5282 270.529 34.1703C270.244 33.8125 269.729 33.5225 268.986 33.3003C268.254 33.0905 267.256 32.9363 265.991 32.8376C264.727 32.7388 263.115 32.6895 261.156 32.6895C260.685 32.6895 260.213 32.6833 259.742 32.671C259.284 32.6586 258.831 32.6401 258.385 32.6154C257.951 32.8746 257.603 33.1954 257.343 33.578C257.095 33.9605 256.971 34.3863 256.971 34.8552Z" fill="#0DEE23"/>
<path d="M0.991283 59.936C0.991283 59.2141 1.0945 58.5505 1.30094 57.9452C1.50738 57.3399 1.79473 56.7957 2.16297 56.3125C2.53121 55.8294 2.9692 55.4074 3.47693 55.0464C3.99024 54.6855 4.55098 54.3828 5.15914 54.1385C5.77288 53.8942 6.42288 53.7137 7.10916 53.5971C7.79543 53.4749 8.50123 53.4138 9.22656 53.4138C9.66176 53.4138 10.097 53.4416 10.5322 53.4971C10.9729 53.5526 11.3998 53.6304 11.8126 53.7303C12.2255 53.8303 12.6189 53.9497 12.9927 54.0885C13.3721 54.2273 13.7208 54.3801 14.0388 54.5466L14.6749 53.7303H16.5496V57.7952H14.4238C14.1895 57.3787 13.9049 57.0095 13.5702 56.6874C13.241 56.3653 12.8755 56.0932 12.4738 55.8711C12.0777 55.6489 11.6536 55.4824 11.2017 55.3713C10.7553 55.2547 10.295 55.1964 9.82077 55.1964C9.30188 55.1964 8.8081 55.2852 8.33943 55.4629C7.87075 55.6406 7.46066 55.9127 7.10916 56.2792C6.75765 56.6457 6.47868 57.1122 6.27224 57.6786C6.0658 58.2395 5.96258 58.9059 5.96258 59.6777C5.96258 60.4163 6.07417 61.0688 6.29735 61.6352C6.5261 62.1961 6.83018 62.6681 7.20959 63.0513C7.58899 63.4289 8.02977 63.7149 8.53192 63.9092C9.03965 64.1036 9.57249 64.2008 10.1304 64.2008C10.6214 64.2008 11.0455 64.1675 11.4025 64.1008C11.7596 64.0286 12.0832 63.9037 12.3734 63.726V61.6436L9.93794 59.3112H16.6584V65.6751H14.6749L14.2146 64.8422C13.8854 65.0532 13.5339 65.2337 13.1601 65.3836C12.7863 65.528 12.3957 65.6446 11.9884 65.7335C11.5811 65.8279 11.1626 65.8945 10.733 65.9334C10.3034 65.9778 9.8682 66 9.42742 66C8.67419 66 7.9405 65.9556 7.22633 65.8667C6.51773 65.7779 5.85099 65.6363 5.22609 65.4419C4.60119 65.242 4.0293 64.9865 3.51041 64.6756C2.99152 64.359 2.54516 63.9787 2.17134 63.5344C1.79751 63.0846 1.50738 62.5626 1.30094 61.9684C1.0945 61.3742 0.991283 60.6968 0.991283 59.936Z" fill="white"/>
<path d="M19.1022 61.2021C19.1022 60.5246 19.1998 59.9276 19.3951 59.4112C19.596 58.8948 19.8638 58.4505 20.1986 58.0784C20.5389 57.7008 20.9323 57.3871 21.3786 57.1372C21.8306 56.8873 22.3104 56.6874 22.8181 56.5374C23.3258 56.3875 23.8475 56.282 24.3832 56.2209C24.9244 56.1598 25.4488 56.1293 25.9566 56.1293C26.7656 56.1293 27.5188 56.2181 28.2162 56.3958C28.9193 56.5735 29.5274 56.8595 30.0407 57.2538C30.554 57.6481 30.9558 58.1673 31.2459 58.8115C31.5416 59.4501 31.6895 60.2303 31.6895 61.1521H23.5128C23.5351 61.7296 23.6327 62.2072 23.8057 62.5848C23.9842 62.9569 24.213 63.254 24.492 63.4761C24.7709 63.6927 25.089 63.8454 25.446 63.9342C25.8031 64.0231 26.1714 64.0675 26.5508 64.0675C26.8911 64.0675 27.2594 64.0481 27.6555 64.0092C28.0516 63.9703 28.4478 63.8981 28.8439 63.7926C29.2401 63.6816 29.6195 63.5316 29.9821 63.3428C30.3448 63.154 30.66 62.9069 30.9279 62.6015L31.7815 63.2679C31.642 63.6066 31.4467 63.9092 31.1957 64.1758C30.9446 64.4423 30.6573 64.6784 30.3336 64.8838C30.01 65.0837 29.6585 65.2559 29.2791 65.4003C28.9053 65.5391 28.5203 65.6529 28.1242 65.7418C27.728 65.8306 27.3319 65.8945 26.9358 65.9334C26.5396 65.9778 26.1602 66 25.7975 66C24.7765 66 23.8531 65.8945 23.0273 65.6835C22.2072 65.4725 21.5042 65.1643 20.9183 64.7589C20.338 64.3479 19.8889 63.8454 19.5709 63.2512C19.2584 62.6515 19.1022 61.9684 19.1022 61.2021ZM27.6388 59.8527C27.6388 59.4417 27.5997 59.0974 27.5216 58.8198C27.4491 58.5366 27.3375 58.3089 27.1868 58.1368C27.0362 57.9646 26.8465 57.8424 26.6177 57.7702C26.3945 57.6925 26.1323 57.6536 25.831 57.6536C25.195 57.6536 24.69 57.8452 24.3162 58.2284C23.9424 58.6115 23.6969 59.153 23.5797 59.8527H27.6388Z" fill="white"/>
<path d="M33.3633 63.5261C33.3633 63.0818 33.4553 62.6987 33.6395 62.3766C33.8236 62.0489 34.0719 61.7713 34.3843 61.5436C34.6968 61.3104 35.0622 61.1216 35.4807 60.9772C35.8992 60.8328 36.3427 60.7217 36.8114 60.644C37.2801 60.5607 37.7599 60.5052 38.2509 60.4774C38.7475 60.4441 39.2301 60.4274 39.6988 60.4274C39.961 60.4274 40.2372 60.433 40.5273 60.4441C40.823 60.4496 41.1187 60.458 41.4144 60.4691C41.4033 60.0692 41.367 59.7138 41.3056 59.4029C41.2498 59.0863 41.1522 58.8226 41.0127 58.6115C40.8788 58.395 40.6891 58.2312 40.4436 58.1201C40.2037 58.0035 39.894 57.9452 39.5146 57.9452C39.2691 57.9452 39.0264 57.9757 38.7865 58.0368C38.5466 58.0979 38.329 58.1951 38.1337 58.3283C37.9384 58.4616 37.7711 58.6338 37.6316 58.8448C37.4977 59.0502 37.4112 59.3029 37.3721 59.6028L34.0161 59.1446C34.0161 58.767 34.0914 58.4311 34.2421 58.1368C34.3983 57.8369 34.6103 57.5759 34.8781 57.3538C35.1459 57.1261 35.4612 56.9345 35.8238 56.779C36.1921 56.6235 36.5854 56.4986 37.0039 56.4042C37.4279 56.3098 37.8687 56.2404 38.3262 56.1959C38.7893 56.1515 39.2496 56.1293 39.7071 56.1293C40.2595 56.1293 40.7868 56.1543 41.2889 56.2043C41.7966 56.2487 42.2681 56.332 42.7033 56.4542C43.1385 56.5763 43.5318 56.7401 43.8834 56.9456C44.2404 57.1511 44.5445 57.4121 44.7956 57.7286C45.0467 58.0451 45.2392 58.4227 45.3731 58.8614C45.5126 59.3001 45.5823 59.811 45.5823 60.3941V63.3262C45.5823 63.7704 45.6911 64.0814 45.9087 64.2591C46.1319 64.4368 46.4332 64.5256 46.8126 64.5256V65.4836C46.7624 65.5335 46.6759 65.5891 46.5531 65.6502C46.436 65.7057 46.2797 65.7584 46.0844 65.8084C45.8947 65.8639 45.6688 65.9084 45.4065 65.9417C45.1443 65.9806 44.843 66 44.5027 66C44.0898 66 43.7188 65.9778 43.3896 65.9334C43.0604 65.8945 42.773 65.8223 42.5275 65.7168C42.2876 65.6168 42.0868 65.478 41.925 65.3003C41.7632 65.1226 41.6404 64.8977 41.5567 64.6256C41.2777 64.8699 40.9625 65.0782 40.611 65.2503C40.2595 65.4225 39.8857 65.5641 39.4895 65.6751C39.099 65.7862 38.6945 65.8667 38.276 65.9167C37.8631 65.9722 37.4558 66 37.0541 66C36.7863 66 36.5101 65.9861 36.2255 65.9584C35.941 65.9306 35.662 65.8806 35.3886 65.8084C35.1152 65.7418 34.8558 65.6502 34.6103 65.5335C34.3648 65.4114 34.15 65.2587 33.9659 65.0754C33.7817 64.8922 33.6339 64.6728 33.5223 64.4174C33.4163 64.1619 33.3633 63.8648 33.3633 63.5261ZM37.6902 63.1596C37.6902 63.3095 37.7292 63.4456 37.8073 63.5677C37.8854 63.6899 37.9914 63.7926 38.1254 63.8759C38.2593 63.9592 38.4155 64.0231 38.594 64.0675C38.7726 64.1119 38.9623 64.1341 39.1631 64.1341C39.3696 64.1341 39.5983 64.1119 39.8494 64.0675C40.1005 64.0175 40.3376 63.937 40.5608 63.8259C40.7895 63.7149 40.9848 63.5705 41.1466 63.3928C41.3084 63.2095 41.4005 62.9874 41.4228 62.7264V61.8768C41.3447 61.8712 41.2694 61.8685 41.1968 61.8685C41.1299 61.8685 41.0657 61.8685 41.0044 61.8685C40.4074 61.8685 39.8996 61.899 39.4812 61.9601C39.0627 62.0156 38.7196 62.0989 38.4518 62.21C38.1895 62.321 37.997 62.4571 37.8743 62.6181C37.7515 62.7792 37.6902 62.9597 37.6902 63.1596Z" fill="white"/>
<path d="M49.9426 63.6427V58.5699L47.7499 56.704L53.9347 56.4542V58.2201C54.1523 57.8758 54.4006 57.5731 54.6796 57.3121C54.9642 57.0511 55.2654 56.8345 55.5835 56.6624C55.9071 56.4847 56.2418 56.3514 56.5878 56.2626C56.9393 56.1737 57.2908 56.1293 57.6423 56.1293C58.1054 56.1293 58.5043 56.207 58.8391 56.3625C59.1794 56.518 59.4584 56.7374 59.676 57.0206C59.8936 57.2982 60.0554 57.6286 60.1614 58.0118C60.2674 58.395 60.3204 58.8115 60.3204 59.2613C60.3204 59.4056 60.3148 59.5528 60.3037 59.7027C60.2925 59.8527 60.2702 59.9998 60.2367 60.1442L57.182 60.4191C57.2043 60.3302 57.2155 60.2469 57.2155 60.1692C57.221 60.0859 57.2238 60.0054 57.2238 59.9276C57.2238 59.7 57.1959 59.4917 57.1401 59.3029C57.0899 59.1141 57.0118 58.9531 56.9058 58.8198C56.8054 58.681 56.6743 58.5755 56.5125 58.5033C56.3562 58.4255 56.1721 58.3866 55.9601 58.3866C55.7369 58.3866 55.5333 58.4311 55.3491 58.5199C55.165 58.6088 54.9976 58.7282 54.847 58.8781C54.6963 59.028 54.5624 59.203 54.4453 59.4029C54.3337 59.5972 54.2388 59.8027 54.1607 60.0193C54.0882 60.2303 54.0324 60.4441 53.9933 60.6607C53.9543 60.8772 53.9347 61.0799 53.9347 61.2687V63.5594L56.8472 65.6751H47.7583L49.9426 63.6427Z" fill="white"/>
<path d="M68.4218 63.5594V55.8461L65.8274 53.7303C66.3518 53.7248 66.8958 53.7192 67.4593 53.7137C68.0229 53.7081 68.5836 53.7053 69.1415 53.7053C69.6995 53.6998 70.2435 53.6942 70.7735 53.6887C71.3036 53.6831 71.8002 53.6804 72.2633 53.6804C72.7319 53.6748 73.156 53.672 73.5354 53.672C73.9148 53.672 74.23 53.672 74.4811 53.672C75.0111 53.672 75.5663 53.6831 76.1466 53.7053C76.7268 53.7276 77.2959 53.7775 77.8539 53.8553C78.4174 53.9275 78.9502 54.0385 79.4524 54.1885C79.9601 54.3329 80.4037 54.53 80.7831 54.7799C81.1681 55.0242 81.4721 55.3296 81.6953 55.6961C81.9241 56.0571 82.0385 56.493 82.0385 57.0039C82.0385 57.3926 81.9687 57.7425 81.8292 58.0535C81.6897 58.3644 81.4889 58.6421 81.2267 58.8864C80.97 59.1308 80.6575 59.3446 80.2893 59.5278C79.9211 59.7111 79.511 59.8693 79.059 60.0026C79.4105 60.0526 79.7397 60.172 80.0466 60.3608C80.359 60.544 80.6296 60.7773 80.8584 61.0605C81.0872 61.3437 81.2657 61.6713 81.394 62.0434C81.5279 62.4154 81.5949 62.8153 81.5949 63.2429V63.726L83.9466 65.6751H75.7114L76.9835 63.9009V62.8764C76.9835 62.5876 76.9416 62.3238 76.8579 62.085C76.7742 61.8407 76.6599 61.6325 76.5148 61.4603C76.3697 61.2826 76.1996 61.1466 76.0043 61.0522C75.8146 60.9522 75.6137 60.9022 75.4017 60.9022H72.8324V63.5594L74.3472 65.6751H65.819L68.4218 63.5594ZM74.0543 59.2696C74.6401 59.2696 75.1506 59.2446 75.5858 59.1946C76.021 59.1446 76.3809 59.0502 76.6654 58.9114C76.9556 58.7726 77.1704 58.581 77.3099 58.3367C77.4494 58.0923 77.5191 57.7786 77.5191 57.3954C77.5191 57.1011 77.4689 56.8484 77.3685 56.6374C77.268 56.4264 77.1313 56.2515 76.9584 56.1126C76.7854 55.9683 76.5818 55.8544 76.3474 55.7711C76.1187 55.6823 75.876 55.6184 75.6193 55.5795C75.3626 55.5351 75.1004 55.5073 74.8326 55.4962C74.5648 55.4796 74.3053 55.4712 74.0543 55.4712H72.8324V59.2696H74.0543Z" fill="white"/>
<path d="M84.6999 61.2021C84.6999 60.5246 84.7975 59.9276 84.9928 59.4112C85.1936 58.8948 85.4615 58.4505 85.7962 58.0784C86.1366 57.7008 86.5299 57.3871 86.9763 57.1372C87.4282 56.8873 87.9081 56.6874 88.4158 56.5374C88.9235 56.3875 89.4452 56.282 89.9808 56.2209C90.522 56.1598 91.0465 56.1293 91.5542 56.1293C92.3632 56.1293 93.1165 56.2181 93.8139 56.3958C94.5169 56.5735 95.1251 56.8595 95.6384 57.2538C96.1517 57.6481 96.5534 58.1673 96.8436 58.8115C97.1393 59.4501 97.2871 60.2303 97.2871 61.1521H89.1104C89.1327 61.7296 89.2304 62.2072 89.4033 62.5848C89.5819 62.9569 89.8106 63.254 90.0896 63.4761C90.3686 63.6927 90.6866 63.8454 91.0437 63.9342C91.4008 64.0231 91.769 64.0675 92.1484 64.0675C92.4888 64.0675 92.857 64.0481 93.2532 64.0092C93.6493 63.9703 94.0455 63.8981 94.4416 63.7926C94.8377 63.6816 95.2171 63.5316 95.5798 63.3428C95.9425 63.154 96.2577 62.9069 96.5255 62.6015L97.3792 63.2679C97.2397 63.6066 97.0444 63.9092 96.7933 64.1758C96.5423 64.4423 96.2549 64.6784 95.9313 64.8838C95.6077 65.0837 95.2562 65.2559 94.8768 65.4003C94.503 65.5391 94.118 65.6529 93.7218 65.7418C93.3257 65.8306 92.9296 65.8945 92.5334 65.9334C92.1373 65.9778 91.7579 66 91.3952 66C90.3742 66 89.4508 65.8945 88.625 65.6835C87.8048 65.4725 87.1018 65.1643 86.516 64.7589C85.9357 64.3479 85.4866 63.8454 85.1685 63.2512C84.8561 62.6515 84.6999 61.9684 84.6999 61.2021ZM93.2364 59.8527C93.2364 59.4417 93.1974 59.0974 93.1193 58.8198C93.0467 58.5366 92.9351 58.3089 92.7845 58.1368C92.6339 57.9646 92.4441 57.8424 92.2154 57.7702C91.9922 57.6925 91.73 57.6536 91.4287 57.6536C90.7926 57.6536 90.2877 57.8452 89.9139 58.2284C89.54 58.6115 89.2945 59.153 89.1774 59.8527H93.2364Z" fill="white"/>
<path d="M100.777 63.6427V58.5699L98.5843 56.704L104.769 56.4542V58.2617C105.171 57.5787 105.698 57.0539 106.351 56.6874C107.009 56.3153 107.763 56.1293 108.611 56.1293C109.258 56.1293 109.833 56.2292 110.335 56.4292C110.842 56.6235 111.266 56.9178 111.607 57.3121C111.953 57.7008 112.215 58.1895 112.393 58.7781C112.572 59.3612 112.661 60.0387 112.661 60.8106V63.6427L114.929 65.6751H107.129L108.669 63.6427V60.9855C108.669 60.6301 108.636 60.2941 108.569 59.9776C108.502 59.6611 108.396 59.3834 108.251 59.1446C108.111 58.9059 107.93 58.7171 107.707 58.5782C107.484 58.4394 107.216 58.37 106.903 58.37C106.591 58.37 106.304 58.4394 106.041 58.5782C105.779 58.7115 105.553 58.9086 105.363 59.1696C105.174 59.4251 105.026 59.7416 104.92 60.1192C104.819 60.4913 104.769 60.9189 104.769 61.402V63.6427L106.309 65.6751H98.509L100.777 63.6427Z" fill="white"/>
<path d="M116.838 58.1534H115.398V56.8623C115.794 56.8623 116.165 56.8068 116.511 56.6957C116.857 56.5791 117.175 56.4236 117.465 56.2292C117.761 56.0349 118.023 55.81 118.252 55.5545C118.486 55.2935 118.684 55.0214 118.846 54.7382C119.008 54.4495 119.131 54.1579 119.214 53.8636C119.304 53.5637 119.348 53.275 119.348 52.9973H120.997V56.4542H125.106V58.1534H120.997V61.8935C120.997 62.4099 121.058 62.8208 121.181 63.1262C121.309 63.4317 121.471 63.6621 121.667 63.8176C121.867 63.9731 122.085 64.0731 122.319 64.1175C122.559 64.1619 122.791 64.1841 123.014 64.1841C123.583 64.1841 124.032 64.0231 124.361 63.701C124.696 63.3734 124.864 62.8736 124.864 62.2017C124.864 62.1517 124.864 62.0989 124.864 62.0434C124.864 61.9879 124.858 61.9295 124.847 61.8685L126.286 62.2933C126.303 62.4432 126.311 62.5848 126.311 62.7181C126.311 63.1235 126.247 63.4872 126.119 63.8093C125.991 64.1314 125.815 64.4146 125.592 64.6589C125.369 64.8977 125.103 65.1032 124.797 65.2753C124.495 65.4475 124.172 65.5863 123.826 65.6918C123.48 65.7973 123.12 65.8751 122.746 65.925C122.372 65.975 122.001 66 121.633 66C120.902 66 120.241 65.9278 119.65 65.7834C119.058 65.639 118.553 65.4086 118.135 65.0921C117.722 64.7755 117.401 64.3674 117.172 63.8676C116.949 63.3623 116.838 62.7514 116.838 62.0351V58.1534Z" fill="white"/>
<path d="M127.399 63.5261C127.399 63.0818 127.492 62.6987 127.676 62.3766C127.86 62.0489 128.108 61.7713 128.42 61.5436C128.733 61.3104 129.098 61.1216 129.517 60.9772C129.935 60.8328 130.379 60.7217 130.848 60.644C131.316 60.5607 131.796 60.5052 132.287 60.4774C132.784 60.4441 133.266 60.4274 133.735 60.4274C133.997 60.4274 134.273 60.433 134.563 60.4441C134.859 60.4496 135.155 60.458 135.451 60.4691C135.439 60.0692 135.403 59.7138 135.342 59.4029C135.286 59.0863 135.188 58.8226 135.049 58.6115C134.915 58.395 134.725 58.2312 134.48 58.1201C134.24 58.0035 133.93 57.9452 133.551 57.9452C133.305 57.9452 133.063 57.9757 132.823 58.0368C132.583 58.0979 132.365 58.1951 132.17 58.3283C131.975 58.4616 131.807 58.6338 131.668 58.8448C131.534 59.0502 131.447 59.3029 131.408 59.6028L128.052 59.1446C128.052 58.767 128.128 58.4311 128.278 58.1368C128.434 57.8369 128.646 57.5759 128.914 57.3538C129.182 57.1261 129.497 56.9345 129.86 56.779C130.228 56.6235 130.622 56.4986 131.04 56.4042C131.464 56.3098 131.905 56.2404 132.362 56.1959C132.825 56.1515 133.286 56.1293 133.743 56.1293C134.296 56.1293 134.823 56.1543 135.325 56.2043C135.833 56.2487 136.304 56.332 136.739 56.4542C137.175 56.5763 137.568 56.7401 137.92 56.9456C138.277 57.1511 138.581 57.4121 138.832 57.7286C139.083 58.0451 139.275 58.4227 139.409 58.8614C139.549 59.3001 139.618 59.811 139.618 60.3941V63.3262C139.618 63.7704 139.727 64.0814 139.945 64.2591C140.168 64.4368 140.469 64.5256 140.849 64.5256V65.4836C140.799 65.5335 140.712 65.5891 140.589 65.6502C140.472 65.7057 140.316 65.7584 140.121 65.8084C139.931 65.8639 139.705 65.9084 139.443 65.9417C139.18 65.9806 138.879 66 138.539 66C138.126 66 137.755 65.9778 137.426 65.9334C137.097 65.8945 136.809 65.8223 136.564 65.7168C136.324 65.6168 136.123 65.478 135.961 65.3003C135.799 65.1226 135.677 64.8977 135.593 64.6256C135.314 64.8699 134.999 65.0782 134.647 65.2503C134.296 65.4225 133.922 65.5641 133.526 65.6751C133.135 65.7862 132.731 65.8667 132.312 65.9167C131.899 65.9722 131.492 66 131.09 66C130.822 66 130.546 65.9861 130.262 65.9584C129.977 65.9306 129.698 65.8806 129.425 65.8084C129.151 65.7418 128.892 65.6502 128.646 65.5335C128.401 65.4114 128.186 65.2587 128.002 65.0754C127.818 64.8922 127.67 64.6728 127.558 64.4174C127.452 64.1619 127.399 63.8648 127.399 63.5261ZM131.726 63.1596C131.726 63.3095 131.765 63.4456 131.843 63.5677C131.922 63.6899 132.028 63.7926 132.162 63.8759C132.295 63.9592 132.452 64.0231 132.63 64.0675C132.809 64.1119 132.998 64.1341 133.199 64.1341C133.406 64.1341 133.634 64.1119 133.886 64.0675C134.137 64.0175 134.374 63.937 134.597 63.8259C134.826 63.7149 135.021 63.5705 135.183 63.3928C135.345 63.2095 135.437 62.9874 135.459 62.7264V61.8768C135.381 61.8712 135.306 61.8685 135.233 61.8685C135.166 61.8685 135.102 61.8685 135.041 61.8685C134.443 61.8685 133.936 61.899 133.517 61.9601C133.099 62.0156 132.756 62.0989 132.488 62.21C132.226 62.321 132.033 62.4571 131.91 62.6181C131.788 62.7792 131.726 62.9597 131.726 63.1596Z" fill="white"/>
<path d="M143.979 63.6427V54.5966L141.786 52.7308L147.887 52.4809V63.6427L150.155 65.6751H141.711L143.979 63.6427Z" fill="white"/>
<path d="M156.29 63.5261C156.29 63.0818 156.382 62.6987 156.566 62.3766C156.75 62.0489 156.998 61.7713 157.311 61.5436C157.623 61.3104 157.989 61.1216 158.407 60.9772C158.826 60.8328 159.269 60.7217 159.738 60.644C160.207 60.5607 160.686 60.5052 161.177 60.4774C161.674 60.4441 162.157 60.4274 162.625 60.4274C162.888 60.4274 163.164 60.433 163.454 60.4441C163.75 60.4496 164.045 60.458 164.341 60.4691C164.33 60.0692 164.294 59.7138 164.232 59.4029C164.176 59.0863 164.079 58.8226 163.939 58.6115C163.805 58.395 163.616 58.2312 163.37 58.1201C163.13 58.0035 162.821 57.9452 162.441 57.9452C162.196 57.9452 161.953 57.9757 161.713 58.0368C161.473 58.0979 161.256 58.1951 161.06 58.3283C160.865 58.4616 160.698 58.6338 160.558 58.8448C160.424 59.0502 160.338 59.3029 160.299 59.6028L156.943 59.1446C156.943 58.767 157.018 58.4311 157.169 58.1368C157.325 57.8369 157.537 57.5759 157.805 57.3538C158.072 57.1261 158.388 56.9345 158.75 56.779C159.119 56.6235 159.512 56.4986 159.93 56.4042C160.354 56.3098 160.795 56.2404 161.253 56.1959C161.716 56.1515 162.176 56.1293 162.634 56.1293C163.186 56.1293 163.713 56.1543 164.215 56.2043C164.723 56.2487 165.195 56.332 165.63 56.4542C166.065 56.5763 166.458 56.7401 166.81 56.9456C167.167 57.1511 167.471 57.4121 167.722 57.7286C167.973 58.0451 168.166 58.4227 168.3 58.8614C168.439 59.3001 168.509 59.811 168.509 60.3941V63.3262C168.509 63.7704 168.618 64.0814 168.835 64.2591C169.058 64.4368 169.36 64.5256 169.739 64.5256V65.4836C169.689 65.5335 169.602 65.5891 169.48 65.6502C169.363 65.7057 169.206 65.7584 169.011 65.8084C168.821 65.8639 168.595 65.9084 168.333 65.9417C168.071 65.9806 167.77 66 167.429 66C167.016 66 166.645 65.9778 166.316 65.9334C165.987 65.8945 165.7 65.8223 165.454 65.7168C165.214 65.6168 165.013 65.478 164.852 65.3003C164.69 65.1226 164.567 64.8977 164.483 64.6256C164.204 64.8699 163.889 65.0782 163.538 65.2503C163.186 65.4225 162.812 65.5641 162.416 65.6751C162.026 65.7862 161.621 65.8667 161.203 65.9167C160.79 65.9722 160.382 66 159.981 66C159.713 66 159.437 65.9861 159.152 65.9584C158.868 65.9306 158.589 65.8806 158.315 65.8084C158.042 65.7418 157.782 65.6502 157.537 65.5335C157.291 65.4114 157.077 65.2587 156.892 65.0754C156.708 64.8922 156.56 64.6728 156.449 64.4174C156.343 64.1619 156.29 63.8648 156.29 63.5261ZM160.617 63.1596C160.617 63.3095 160.656 63.4456 160.734 63.5677C160.812 63.6899 160.918 63.7926 161.052 63.8759C161.186 63.9592 161.342 64.0231 161.521 64.0675C161.699 64.1119 161.889 64.1341 162.09 64.1341C162.296 64.1341 162.525 64.1119 162.776 64.0675C163.027 64.0175 163.264 63.937 163.487 63.8259C163.716 63.7149 163.911 63.5705 164.073 63.3928C164.235 63.2095 164.327 62.9874 164.349 62.7264V61.8768C164.271 61.8712 164.196 61.8685 164.123 61.8685C164.056 61.8685 163.992 61.8685 163.931 61.8685C163.334 61.8685 162.826 61.899 162.408 61.9601C161.989 62.0156 161.646 62.0989 161.378 62.21C161.116 62.321 160.924 62.4571 160.801 62.6181C160.678 62.7792 160.617 62.9597 160.617 63.1596Z" fill="white"/>
<path d="M172.869 63.6427V58.5699L170.676 56.704L176.861 56.4542V58.2617C177.263 57.5787 177.79 57.0539 178.443 56.6874C179.101 56.3153 179.855 56.1293 180.703 56.1293C181.35 56.1293 181.925 56.2292 182.427 56.4292C182.935 56.6235 183.359 56.9178 183.699 57.3121C184.045 57.7008 184.307 58.1895 184.486 58.7781C184.664 59.3612 184.753 60.0387 184.753 60.8106V63.6427L187.022 65.6751H179.221L180.761 63.6427V60.9855C180.761 60.6301 180.728 60.2941 180.661 59.9776C180.594 59.6611 180.488 59.3834 180.343 59.1446C180.203 58.9059 180.022 58.7171 179.799 58.5782C179.576 58.4394 179.308 58.37 178.995 58.37C178.683 58.37 178.396 58.4394 178.133 58.5782C177.871 58.7115 177.645 58.9086 177.456 59.1696C177.266 59.4251 177.118 59.7416 177.012 60.1192C176.912 60.4913 176.861 60.9189 176.861 61.402V63.6427L178.401 65.6751H170.601L172.869 63.6427Z" fill="white"/>
<path d="M187.825 61.1771C187.825 60.4552 187.945 59.7888 188.185 59.178C188.43 58.5616 188.776 58.0285 189.223 57.5787C189.675 57.1289 190.216 56.7762 190.846 56.5208C191.477 56.2598 192.183 56.1293 192.964 56.1293C193.365 56.1293 193.756 56.1654 194.135 56.2376C194.515 56.3042 194.872 56.4125 195.207 56.5624C195.547 56.7068 195.857 56.8956 196.136 57.1289C196.42 57.3621 196.668 57.6453 196.88 57.9785V54.5966L194.688 52.7308L200.873 52.4809V63.6427L203.141 65.6751H196.88V64.1508C196.484 64.7783 195.968 65.2448 195.332 65.5502C194.702 65.8501 193.996 66 193.215 66C192.266 66 191.452 65.8695 190.771 65.6085C190.09 65.3475 189.532 64.9977 189.097 64.559C188.662 64.1147 188.341 63.601 188.135 63.018C187.928 62.4349 187.825 61.8213 187.825 61.1771ZM192.227 61.0688C192.227 61.5242 192.283 61.924 192.395 62.2683C192.512 62.6126 192.673 62.9013 192.88 63.1346C193.086 63.3623 193.332 63.5344 193.616 63.651C193.901 63.7676 194.213 63.8259 194.554 63.8259C194.838 63.8259 195.117 63.776 195.391 63.676C195.67 63.5761 195.918 63.4178 196.136 63.2012C196.359 62.9791 196.537 62.6931 196.671 62.3433C196.811 61.9934 196.88 61.5686 196.88 61.0688C196.88 60.5524 196.813 60.1164 196.68 59.761C196.551 59.4001 196.378 59.1086 196.161 58.8864C195.949 58.6587 195.703 58.4949 195.424 58.395C195.145 58.2895 194.855 58.2367 194.554 58.2367C194.213 58.2367 193.901 58.2978 193.616 58.42C193.332 58.5421 193.086 58.7254 192.88 58.9697C192.673 59.2085 192.512 59.5056 192.395 59.861C192.283 60.2108 192.227 60.6135 192.227 61.0688Z" fill="white"/>
<path d="M210.003 61.6019C210.544 61.9573 211.114 62.2905 211.711 62.6015C212.308 62.9069 212.924 63.1735 213.56 63.4011C214.202 63.6288 214.857 63.8093 215.527 63.9426C216.202 64.0703 216.888 64.1341 217.586 64.1341C217.854 64.1341 218.11 64.1175 218.356 64.0842C218.607 64.0508 218.824 63.9981 219.009 63.9259C219.198 63.8482 219.349 63.7482 219.46 63.626C219.578 63.4983 219.636 63.3456 219.636 63.1679C219.636 63.0069 219.589 62.8458 219.494 62.6848C219.399 62.5182 219.215 62.3599 218.942 62.21C218.674 62.06 218.297 61.9212 217.812 61.7935C217.326 61.6602 216.696 61.5436 215.92 61.4436C214.883 61.3104 213.981 61.1382 213.217 60.9272C212.453 60.7162 211.819 60.4469 211.317 60.1192C210.815 59.7916 210.441 59.3973 210.196 58.9364C209.95 58.4755 209.828 57.9285 209.828 57.2955C209.828 56.6902 209.964 56.1487 210.238 55.6712C210.517 55.188 210.916 54.7799 211.434 54.4467C211.953 54.1135 212.584 53.8581 213.326 53.6804C214.068 53.5027 214.905 53.4138 215.837 53.4138C216.222 53.4138 216.609 53.436 217 53.4804C217.39 53.5193 217.775 53.5748 218.155 53.647C218.534 53.7192 218.905 53.8053 219.268 53.9053C219.631 53.9997 219.971 54.0996 220.289 54.2051L221.929 53.3055H223.076V57.3038C222.479 56.9539 221.876 56.6457 221.268 56.3792C220.666 56.1126 220.066 55.8905 219.469 55.7128C218.877 55.5296 218.297 55.3935 217.728 55.3046C217.165 55.2102 216.626 55.163 216.113 55.163C215.778 55.163 215.474 55.188 215.201 55.238C214.933 55.288 214.704 55.3546 214.514 55.4379C214.33 55.5212 214.188 55.6212 214.087 55.7378C213.987 55.8489 213.937 55.9683 213.937 56.096C213.937 56.2792 213.987 56.4458 214.087 56.5958C214.188 56.7401 214.383 56.8762 214.673 57.0039C214.963 57.1316 215.371 57.2566 215.895 57.3787C216.42 57.4954 217.106 57.6231 217.954 57.7619C218.518 57.8563 219.056 57.9563 219.569 58.0618C220.083 58.1673 220.56 58.295 221 58.445C221.441 58.5893 221.837 58.7643 222.189 58.9697C222.546 59.1752 222.85 59.4223 223.101 59.7111C223.352 59.9998 223.545 60.3386 223.679 60.7273C223.818 61.116 223.888 61.5686 223.888 62.085C223.888 62.7736 223.72 63.365 223.386 63.8593C223.051 64.3535 222.599 64.7589 222.03 65.0754C221.461 65.3919 220.797 65.6252 220.038 65.7751C219.285 65.925 218.49 66 217.653 66C216.872 66 216.082 65.9167 215.284 65.7501C214.486 65.5891 213.722 65.3253 212.991 64.9588L211.652 65.7918H210.003V61.6019Z" fill="white"/>
<path d="M225.536 63.5261C225.536 63.0818 225.629 62.6987 225.813 62.3766C225.997 62.0489 226.245 61.7713 226.558 61.5436C226.87 61.3104 227.235 61.1216 227.654 60.9772C228.072 60.8328 228.516 60.7217 228.985 60.644C229.453 60.5607 229.933 60.5052 230.424 60.4774C230.921 60.4441 231.403 60.4274 231.872 60.4274C232.134 60.4274 232.41 60.433 232.701 60.4441C232.996 60.4496 233.292 60.458 233.588 60.4691C233.576 60.0692 233.54 59.7138 233.479 59.4029C233.423 59.0863 233.325 58.8226 233.186 58.6115C233.052 58.395 232.862 58.2312 232.617 58.1201C232.377 58.0035 232.067 57.9452 231.688 57.9452C231.442 57.9452 231.2 57.9757 230.96 58.0368C230.72 58.0979 230.502 58.1951 230.307 58.3283C230.112 58.4616 229.944 58.6338 229.805 58.8448C229.671 59.0502 229.584 59.3029 229.545 59.6028L226.189 59.1446C226.189 58.767 226.265 58.4311 226.415 58.1368C226.571 57.8369 226.784 57.5759 227.051 57.3538C227.319 57.1261 227.634 56.9345 227.997 56.779C228.365 56.6235 228.759 56.4986 229.177 56.4042C229.601 56.3098 230.042 56.2404 230.499 56.1959C230.963 56.1515 231.423 56.1293 231.88 56.1293C232.433 56.1293 232.96 56.1543 233.462 56.2043C233.97 56.2487 234.441 56.332 234.877 56.4542C235.312 56.5763 235.705 56.7401 236.057 56.9456C236.414 57.1511 236.718 57.4121 236.969 57.7286C237.22 58.0451 237.412 58.4227 237.546 58.8614C237.686 59.3001 237.756 59.811 237.756 60.3941V63.3262C237.756 63.7704 237.864 64.0814 238.082 64.2591C238.305 64.4368 238.606 64.5256 238.986 64.5256V65.4836C238.936 65.5335 238.849 65.5891 238.726 65.6502C238.609 65.7057 238.453 65.7584 238.258 65.8084C238.068 65.8639 237.842 65.9084 237.58 65.9417C237.318 65.9806 237.016 66 236.676 66C236.263 66 235.892 65.9778 235.563 65.9334C235.234 65.8945 234.946 65.8223 234.701 65.7168C234.461 65.6168 234.26 65.478 234.098 65.3003C233.936 65.1226 233.814 64.8977 233.73 64.6256C233.451 64.8699 233.136 65.0782 232.784 65.2503C232.433 65.4225 232.059 65.5641 231.663 65.6751C231.272 65.7862 230.868 65.8667 230.449 65.9167C230.036 65.9722 229.629 66 229.227 66C228.959 66 228.683 65.9861 228.399 65.9584C228.114 65.9306 227.835 65.8806 227.562 65.8084C227.288 65.7418 227.029 65.6502 226.784 65.5335C226.538 65.4114 226.323 65.2587 226.139 65.0754C225.955 64.8922 225.807 64.6728 225.696 64.4174C225.589 64.1619 225.536 63.8648 225.536 63.5261ZM229.863 63.1596C229.863 63.3095 229.902 63.4456 229.981 63.5677C230.059 63.6899 230.165 63.7926 230.299 63.8759C230.432 63.9592 230.589 64.0231 230.767 64.0675C230.946 64.1119 231.135 64.1341 231.336 64.1341C231.543 64.1341 231.772 64.1119 232.023 64.0675C232.274 64.0175 232.511 63.937 232.734 63.8259C232.963 63.7149 233.158 63.5705 233.32 63.3928C233.482 63.2095 233.574 62.9874 233.596 62.7264V61.8768C233.518 61.8712 233.443 61.8685 233.37 61.8685C233.303 61.8685 233.239 61.8685 233.178 61.8685C232.581 61.8685 232.073 61.899 231.654 61.9601C231.236 62.0156 230.893 62.0989 230.625 62.21C230.363 62.321 230.17 62.4571 230.047 62.6181C229.925 62.7792 229.863 62.9597 229.863 63.1596Z" fill="white"/>
<path d="M242.116 63.6427V54.5966L239.923 52.7308L246.024 52.4809V63.6427L248.292 65.6751H239.848L242.116 63.6427Z" fill="white"/>
<path d="M249.305 61.2021C249.305 60.5246 249.403 59.9276 249.598 59.4112C249.799 58.8948 250.067 58.4505 250.401 58.0784C250.742 57.7008 251.135 57.3871 251.581 57.1372C252.033 56.8873 252.513 56.6874 253.021 56.5374C253.529 56.3875 254.05 56.282 254.586 56.2209C255.127 56.1598 255.652 56.1293 256.159 56.1293C256.968 56.1293 257.722 56.2181 258.419 56.3958C259.122 56.5735 259.73 56.8595 260.243 57.2538C260.757 57.6481 261.159 58.1673 261.449 58.8115C261.744 59.4501 261.892 60.2303 261.892 61.1521H253.716C253.738 61.7296 253.835 62.2072 254.008 62.5848C254.187 62.9569 254.416 63.254 254.695 63.4761C254.974 63.6927 255.292 63.8454 255.649 63.9342C256.006 64.0231 256.374 64.0675 256.754 64.0675C257.094 64.0675 257.462 64.0481 257.858 64.0092C258.254 63.9703 258.651 63.8981 259.047 63.7926C259.443 63.6816 259.822 63.5316 260.185 63.3428C260.548 63.154 260.863 62.9069 261.131 62.6015L261.984 63.2679C261.845 63.6066 261.65 63.9092 261.398 64.1758C261.147 64.4423 260.86 64.6784 260.536 64.8838C260.213 65.0837 259.861 65.2559 259.482 65.4003C259.108 65.5391 258.723 65.6529 258.327 65.7418C257.931 65.8306 257.535 65.8945 257.139 65.9334C256.742 65.9778 256.363 66 256 66C254.979 66 254.056 65.8945 253.23 65.6835C252.41 65.4725 251.707 65.1643 251.121 64.7589C250.541 64.3479 250.092 63.8454 249.774 63.2512C249.461 62.6515 249.305 61.9684 249.305 61.2021ZM257.842 59.8527C257.842 59.4417 257.802 59.0974 257.724 58.8198C257.652 58.5366 257.54 58.3089 257.39 58.1368C257.239 57.9646 257.049 57.8424 256.82 57.7702C256.597 57.6925 256.335 57.6536 256.034 57.6536C255.398 57.6536 254.893 57.8452 254.519 58.2284C254.145 58.6115 253.9 59.153 253.782 59.8527H257.842Z" fill="white"/>
<path d="M264.277 62.2766C264.701 62.5543 265.156 62.8125 265.642 63.0513C266.133 63.2845 266.64 63.49 267.165 63.6677C267.689 63.8398 268.225 63.9759 268.772 64.0758C269.318 64.1758 269.865 64.2258 270.412 64.2258C270.618 64.2258 270.822 64.2119 271.023 64.1841C271.229 64.1564 271.411 64.1147 271.567 64.0592C271.729 63.9981 271.857 63.9203 271.952 63.8259C272.052 63.726 272.103 63.6066 272.103 63.4678C272.103 63.3512 272.064 63.2484 271.985 63.1596C271.913 63.0652 271.771 62.9791 271.559 62.9013C271.347 62.8236 271.048 62.7542 270.663 62.6931C270.284 62.632 269.787 62.5765 269.173 62.5265C268.761 62.4932 268.345 62.4515 267.926 62.4016C267.508 62.346 267.103 62.2711 266.713 62.1767C266.328 62.0823 265.965 61.9601 265.625 61.8102C265.29 61.6602 264.997 61.477 264.746 61.2604C264.501 61.0383 264.305 60.7745 264.16 60.4691C264.015 60.1637 263.943 59.8055 263.943 59.3945C263.943 58.8614 264.071 58.3922 264.328 57.9868C264.584 57.5814 264.93 57.2427 265.365 56.9706C265.806 56.6929 266.317 56.4847 266.897 56.3459C267.477 56.2015 268.091 56.1293 268.738 56.1293C269.436 56.1293 270.125 56.2126 270.805 56.3792C271.492 56.5402 272.17 56.7735 272.839 57.0789L275.032 56.1793V59.4778C274.569 59.2057 274.089 58.9669 273.592 58.7615C273.101 58.5505 272.61 58.3755 272.119 58.2367C271.634 58.0979 271.157 57.9951 270.688 57.9285C270.225 57.8563 269.793 57.8202 269.391 57.8202C269.123 57.8202 268.88 57.8397 268.663 57.8785C268.445 57.9174 268.256 57.9702 268.094 58.0368C267.938 58.1034 267.815 58.1812 267.726 58.27C267.642 58.3589 267.6 58.4533 267.6 58.5532C267.6 58.6532 267.636 58.742 267.709 58.8198C267.787 58.8975 267.938 58.9725 268.161 59.0447C268.389 59.1113 268.71 59.178 269.123 59.2446C269.542 59.3057 270.088 59.3695 270.764 59.4362C271.428 59.5028 272.064 59.6028 272.672 59.7361C273.285 59.8638 273.827 60.047 274.295 60.2858C274.764 60.5191 275.138 60.8245 275.417 61.2021C275.696 61.5741 275.835 62.0406 275.835 62.6015C275.835 63.0069 275.76 63.3734 275.609 63.701C275.464 64.0286 275.266 64.3174 275.015 64.5673C274.764 64.8172 274.471 65.0338 274.136 65.217C273.802 65.3947 273.444 65.5419 273.065 65.6585C272.691 65.7751 272.306 65.8612 271.91 65.9167C271.514 65.9722 271.129 66 270.755 66C270.019 66 269.291 65.9084 268.571 65.7251C267.851 65.5419 267.151 65.2725 266.47 64.9171L264.277 65.8917V62.2766Z" fill="white"/>
<path d="M3.70141 99.2532C3.70141 98.6119 3.79918 97.9938 3.99473 97.399C4.19959 96.7948 4.47428 96.2093 4.81882 95.6423C5.17266 95.0754 5.58238 94.527 6.04797 93.9973C6.52286 93.4675 7.03035 92.9516 7.57043 92.4497C8.11051 91.9386 8.66456 91.4413 9.23258 90.958C9.8099 90.4747 10.3826 90.0007 10.9506 89.536C11.5931 89.0062 12.2077 88.4904 12.7943 87.9885C13.381 87.4773 13.8978 86.9754 14.3447 86.4828C14.801 85.9809 15.1688 85.4837 15.4482 84.9911C15.7275 84.4985 15.8812 84.0059 15.9091 83.5133L5.93623 84.294L0 89.5917L0.419028 80L3.68744 80.6274H20.8955C21.0352 81.1293 21.105 81.6358 21.105 82.147C21.105 82.7976 21.0026 83.4528 20.7977 84.1127C20.6022 84.7726 20.3368 85.4325 20.0016 86.0924C19.6664 86.7523 19.2799 87.4122 18.8423 88.0721C18.4046 88.7227 17.9484 89.3687 17.4735 90.01C16.9241 90.7535 16.384 91.4924 15.8532 92.2267C15.3318 92.9609 14.8615 93.6905 14.4425 94.4155C14.0328 95.1405 13.6976 95.8561 13.4368 96.5625C13.1854 97.2689 13.0597 97.9659 13.0597 98.6537C13.0597 99.1463 13.1388 99.5367 13.2971 99.8248C13.4554 100.113 13.7115 100.378 14.0654 100.619H4.03663C3.91558 100.396 3.82712 100.192 3.77125 100.006C3.72469 99.8109 3.70141 99.5599 3.70141 99.2532Z" fill="#0DEE23"/>
<path d="M25.5048 100.619C25.2907 100.108 25.1091 99.5831 24.9601 99.0441C24.8204 98.505 24.7506 97.9102 24.7506 97.2596C24.7506 96.4788 24.8623 95.7864 25.0858 95.1823C25.3093 94.5781 25.6119 94.0437 25.9937 93.579C26.3848 93.1143 26.8411 92.7146 27.3625 92.38C27.8933 92.0362 28.4613 91.7387 29.0666 91.4878C29.6811 91.2368 30.319 91.0231 30.9801 90.8465C31.6506 90.6606 32.3163 90.4933 32.9775 90.3446C34.0763 90.1029 35.0493 89.8799 35.8967 89.6754C36.7441 89.4709 37.4564 89.2293 38.0337 88.9504C38.6111 88.6716 39.0487 88.337 39.3467 87.9466C39.6447 87.547 39.7937 87.0358 39.7937 86.4131C39.7937 85.8461 39.6866 85.3535 39.4724 84.9353C39.2582 84.517 38.9603 84.1732 38.5785 83.9036C38.206 83.6248 37.7684 83.4203 37.2655 83.2902C36.7627 83.1508 36.218 83.0811 35.6313 83.0811C34.9423 83.0811 34.337 83.1601 33.8155 83.3181C33.3034 83.4761 32.8704 83.7363 32.5166 84.0988C32.172 84.452 31.9113 84.9167 31.7344 85.4929C31.5574 86.0599 31.469 86.7616 31.469 87.5981H25.2534C25.2162 87.375 25.1882 87.1334 25.1696 86.8732C25.151 86.6129 25.1417 86.3806 25.1417 86.1761C25.1417 85.3675 25.2767 84.6565 25.5467 84.043C25.8261 83.4203 26.2079 82.8859 26.6921 82.4398C27.1856 81.9843 27.7676 81.6079 28.438 81.3105C29.1178 81.0131 29.8627 80.7761 30.6728 80.5995C31.483 80.4136 32.3443 80.2835 33.2568 80.2091C34.1694 80.1348 35.1052 80.0976 36.0643 80.0976C37.9918 80.0976 39.6586 80.2417 41.0647 80.5298C42.4801 80.8179 43.6441 81.2361 44.5566 81.7845C45.4692 82.3329 46.1443 83.0067 46.5819 83.806C47.0289 84.596 47.2524 85.5022 47.2524 86.5246C47.2524 87.2217 47.122 87.8444 46.8613 88.3928C46.6099 88.9411 46.2653 89.4337 45.8277 89.8706C45.39 90.3074 44.8732 90.6931 44.2773 91.0277C43.6813 91.3623 43.0388 91.6597 42.3497 91.92C41.67 92.1802 40.9623 92.4079 40.2267 92.6031C39.491 92.789 38.7647 92.9563 38.0477 93.105C37.1538 93.2909 36.325 93.4861 35.5615 93.6905C34.7979 93.895 34.1368 94.1227 33.5781 94.3737C33.0287 94.6246 32.5957 94.9127 32.2791 95.238C31.9625 95.5541 31.8042 95.9258 31.8042 96.3534C31.8042 96.4463 31.8089 96.5439 31.8182 96.6461C31.8275 96.7484 31.8415 96.846 31.8601 96.9389H41.1206L46.7775 91.9897V100.619H25.5048Z" fill="#0DEE23"/>
<path d="M51.2331 90.6234C51.2331 89.3966 51.3961 88.2859 51.722 87.2914C52.0572 86.2969 52.5135 85.4093 53.0908 84.6286C53.6775 83.8479 54.3619 83.174 55.144 82.6071C55.9262 82.0401 56.7643 81.5707 57.6582 81.199C58.5615 80.8272 59.5019 80.553 60.4797 80.3764C61.4667 80.1905 62.4444 80.0976 63.4129 80.0976C64.3813 80.0976 65.3544 80.1905 66.3321 80.3764C67.3191 80.553 68.2643 80.8272 69.1675 81.199C70.0707 81.5707 70.9135 82.0401 71.6956 82.6071C72.4871 83.174 73.1716 83.8479 73.7489 84.6286C74.3355 85.4093 74.7918 86.2969 75.1177 87.2914C75.4529 88.2859 75.6205 89.3966 75.6205 90.6234C75.6205 91.8503 75.4529 92.9609 75.1177 93.9554C74.7918 94.9499 74.3355 95.8375 73.7489 96.6183C73.1716 97.399 72.4871 98.0775 71.6956 98.6537C70.9135 99.2207 70.0707 99.69 69.1675 100.062C68.2643 100.434 67.3191 100.708 66.3321 100.884C65.3544 101.07 64.3813 101.163 63.4129 101.163C62.4444 101.163 61.4667 101.075 60.4797 100.898C59.5019 100.722 58.5615 100.452 57.6582 100.09C56.7643 99.7272 55.9262 99.2625 55.144 98.6955C54.3619 98.1286 53.6775 97.4547 53.0908 96.674C52.5135 95.8933 52.0572 95.001 51.722 93.9973C51.3961 92.9935 51.2331 91.8689 51.2331 90.6234ZM59.1667 90.6234C59.1667 91.7201 59.2505 92.7379 59.4181 93.6766C59.5951 94.606 59.8558 95.4146 60.2003 96.1024C60.5542 96.7902 60.9965 97.3293 61.5272 97.7196C62.058 98.11 62.6865 98.3052 63.4129 98.3052C64.1392 98.3052 64.7677 98.1053 65.2985 97.7057C65.8386 97.306 66.2855 96.7623 66.6394 96.0745C66.9932 95.3868 67.254 94.5781 67.4216 93.6487C67.5985 92.71 67.6869 91.7016 67.6869 90.6234C67.6869 89.536 67.6031 88.5182 67.4355 87.5702C67.2772 86.6129 67.0258 85.7857 66.6813 85.0886C66.3367 84.3823 65.8944 83.8293 65.3544 83.4296C64.8143 83.0207 64.1671 82.8162 63.4129 82.8162C62.6865 82.8162 62.058 83.0207 61.5272 83.4296C60.9965 83.8293 60.5542 84.3823 60.2003 85.0886C59.8558 85.7857 59.5951 86.6129 59.4181 87.5702C59.2505 88.5182 59.1667 89.536 59.1667 90.6234Z" fill="#0DEE23"/>
<path d="M79.5734 88.7553H93.6527V92.1291H79.5734V88.7553Z" fill="#0DEE23"/>
<path d="M97.5357 95.252C97.5357 95.0289 97.5403 94.7873 97.5497 94.527C97.5683 94.2668 97.6009 94.0112 97.6474 93.7602H104.296C104.296 95.2938 104.748 96.4417 105.651 97.2038C106.554 97.9566 107.872 98.3331 109.604 98.3331C110.237 98.3331 110.819 98.2773 111.35 98.1658C111.88 98.0449 112.337 97.859 112.718 97.6081C113.11 97.3572 113.412 97.0319 113.626 96.6322C113.841 96.2232 113.948 95.726 113.948 95.1405C113.948 94.4248 113.775 93.8532 113.431 93.4257C113.086 92.9888 112.607 92.6542 111.992 92.4219C111.378 92.1895 110.642 92.0362 109.785 91.9618C108.938 91.8874 108.002 91.8503 106.978 91.8503L107.355 89.6196C108.137 89.6196 108.854 89.5685 109.506 89.4663C110.167 89.3547 110.73 89.1735 111.196 88.9226C111.662 88.6716 112.025 88.3417 112.285 87.9327C112.546 87.5238 112.677 87.0172 112.677 86.4131C112.677 85.2606 112.341 84.3962 111.671 83.82C111.01 83.2344 110.102 82.9417 108.947 82.9417C107.709 82.9417 106.764 83.2995 106.112 84.0151C105.469 84.7308 105.148 85.8461 105.148 87.3611H98.5274C98.4808 87.2682 98.4436 87.1009 98.4156 86.8592C98.397 86.6083 98.3877 86.3806 98.3877 86.1761C98.3877 85.3954 98.546 84.7029 98.8626 84.0988C99.1792 83.4854 99.6029 82.9556 100.134 82.5095C100.664 82.054 101.284 81.673 101.991 81.3663C102.699 81.0596 103.444 80.8133 104.226 80.6274C105.018 80.4415 105.818 80.3067 106.629 80.2231C107.439 80.1394 108.221 80.0976 108.975 80.0976C110.931 80.0976 112.635 80.237 114.087 80.5158C115.54 80.7854 116.746 81.185 117.705 81.7148C118.664 82.2353 119.376 82.8812 119.842 83.6527C120.317 84.4148 120.554 85.2931 120.554 86.2876C120.554 86.7616 120.466 87.1892 120.289 87.5702C120.112 87.942 119.87 88.2766 119.563 88.574C119.255 88.8621 118.897 89.1177 118.487 89.3408C118.087 89.5546 117.658 89.7358 117.202 89.8845C116.746 90.0332 116.276 90.1541 115.791 90.247C115.307 90.3399 114.842 90.405 114.395 90.4422C114.888 90.4422 115.414 90.4654 115.973 90.5119C116.532 90.5584 117.086 90.642 117.635 90.7628C118.184 90.8744 118.711 91.037 119.213 91.2508C119.716 91.4646 120.159 91.7387 120.54 92.0733C120.931 92.4079 121.239 92.8169 121.462 93.3002C121.695 93.7742 121.811 94.3319 121.811 94.9732C121.811 95.9398 121.509 96.8088 120.903 97.5802C120.308 98.3424 119.451 98.9883 118.333 99.5181C117.216 100.048 115.866 100.452 114.283 100.731C112.7 101.019 110.931 101.163 108.975 101.163C108.053 101.163 107.131 101.121 106.21 101.038C105.288 100.963 104.403 100.833 103.556 100.647C102.708 100.471 101.917 100.234 101.181 99.9363C100.446 99.6389 99.8077 99.2718 99.2677 98.8349C98.7276 98.3981 98.3039 97.8869 97.9966 97.3014C97.6893 96.7066 97.5357 96.0234 97.5357 95.252Z" fill="#0DEE23"/>
<path d="M125.597 95.6145C125.597 95.5029 125.601 95.3914 125.611 95.2799C125.629 95.159 125.648 95.0429 125.666 94.9313L132.497 94.1367C132.366 94.2668 132.268 94.4387 132.203 94.6525C132.138 94.8663 132.105 95.094 132.105 95.3356C132.105 95.6888 132.185 96.0652 132.343 96.4649C132.501 96.8553 132.753 97.2177 133.097 97.5523C133.442 97.8776 133.889 98.1472 134.438 98.3609C134.987 98.5747 135.658 98.6816 136.449 98.6816C137.166 98.6816 137.818 98.6026 138.405 98.4446C138.992 98.2773 139.49 98.0263 139.899 97.6917C140.318 97.3572 140.64 96.9389 140.863 96.437C141.096 95.9258 141.212 95.3263 141.212 94.6386C141.212 93.8764 141.077 93.2351 140.807 92.7146C140.547 92.1942 140.183 91.7759 139.718 91.4599C139.262 91.1439 138.717 90.9208 138.084 90.7907C137.45 90.6513 136.771 90.5816 136.044 90.5816C135.318 90.5816 134.61 90.6513 133.921 90.7907C133.242 90.9208 132.599 91.0881 131.994 91.2926C131.388 91.4971 130.834 91.7248 130.332 91.9757C129.829 92.2174 129.391 92.4497 129.019 92.6728L126.183 91.4878L127.301 80.6274C128.008 80.6645 128.851 80.7064 129.829 80.7528C130.816 80.79 131.873 80.8272 132.999 80.8644C134.135 80.8923 135.318 80.9155 136.547 80.9341C137.776 80.9527 138.992 80.962 140.193 80.962C141.012 80.962 141.813 80.9573 142.595 80.948C143.377 80.9387 144.104 80.9201 144.774 80.8923C145.454 80.8644 146.059 80.8318 146.59 80.7947C147.13 80.7482 147.572 80.6924 147.917 80.6274C147.963 80.7854 147.996 80.948 148.015 81.1153C148.042 81.2826 148.056 81.4546 148.056 81.6312C148.056 82.4769 147.973 83.1787 147.805 83.7363C147.637 84.2847 147.358 84.7262 146.967 85.0608C146.585 85.3861 146.078 85.6138 145.445 85.7439C144.821 85.874 144.048 85.9391 143.126 85.9391C141.822 85.9391 140.616 85.8508 139.508 85.6742C138.41 85.4976 137.357 85.3024 136.352 85.0886C135.858 84.9771 135.369 84.8749 134.885 84.7819C134.41 84.6797 133.935 84.5914 133.46 84.517C132.985 84.4334 132.506 84.3683 132.022 84.3219C131.547 84.2754 131.067 84.2522 130.583 84.2522C130.583 84.2614 130.574 84.3497 130.555 84.517C130.536 84.6843 130.513 84.9028 130.485 85.1723C130.457 85.4418 130.425 85.7532 130.387 86.1064C130.35 86.4503 130.308 86.8127 130.262 87.1938C130.225 87.5656 130.187 87.9374 130.15 88.3091C130.113 88.6809 130.076 89.0248 130.038 89.3408C130.56 89.0806 131.174 88.8343 131.882 88.6019C132.59 88.3695 133.339 88.1697 134.131 88.0024C134.922 87.8258 135.737 87.6911 136.575 87.5981C137.413 87.4959 138.228 87.4448 139.019 87.4448C139.783 87.4448 140.565 87.4819 141.366 87.5563C142.176 87.6213 142.963 87.7468 143.727 87.9327C144.49 88.1186 145.207 88.3695 145.878 88.6855C146.557 88.9923 147.149 89.3873 147.651 89.8706C148.164 90.3446 148.564 90.9162 148.853 91.5854C149.151 92.2546 149.3 93.0353 149.3 93.9275C149.3 95.1172 148.974 96.1628 148.322 97.0644C147.679 97.9659 146.785 98.7188 145.64 99.3229C144.504 99.927 143.154 100.382 141.589 100.689C140.025 101.005 138.33 101.163 136.505 101.163C134.941 101.163 133.493 101.047 132.161 100.815C130.83 100.582 129.675 100.238 128.697 99.783C127.729 99.3183 126.97 98.7374 126.421 98.0403C125.871 97.3432 125.597 96.5346 125.597 95.6145Z" fill="#0DEE23"/>
<path d="M153.616 100.619C153.401 100.108 153.22 99.5831 153.071 99.0441C152.931 98.505 152.861 97.9102 152.861 97.2596C152.861 96.4788 152.973 95.7864 153.197 95.1823C153.42 94.5781 153.723 94.0437 154.104 93.579C154.496 93.1143 154.952 92.7146 155.473 92.38C156.004 92.0362 156.572 91.7387 157.177 91.4878C157.792 91.2368 158.43 91.0231 159.091 90.8465C159.761 90.6606 160.427 90.4933 161.088 90.3446C162.187 90.1029 163.16 89.8799 164.007 89.6754C164.855 89.4709 165.567 89.2293 166.144 88.9504C166.722 88.6716 167.159 88.337 167.457 87.9466C167.755 87.547 167.904 87.0358 167.904 86.4131C167.904 85.8461 167.797 85.3535 167.583 84.9353C167.369 84.517 167.071 84.1732 166.689 83.9036C166.317 83.6248 165.879 83.4203 165.376 83.2902C164.873 83.1508 164.329 83.0811 163.742 83.0811C163.053 83.0811 162.448 83.1601 161.926 83.3181C161.414 83.4761 160.981 83.7363 160.627 84.0988C160.283 84.452 160.022 84.9167 159.845 85.4929C159.668 86.0599 159.58 86.7616 159.58 87.5981H153.364C153.327 87.375 153.299 87.1334 153.28 86.8732C153.262 86.6129 153.252 86.3806 153.252 86.1761C153.252 85.3675 153.387 84.6565 153.657 84.043C153.937 83.4203 154.319 82.8859 154.803 82.4398C155.296 81.9843 155.878 81.6079 156.549 81.3105C157.229 81.0131 157.973 80.7761 158.784 80.5995C159.594 80.4136 160.455 80.2835 161.368 80.2091C162.28 80.1348 163.216 80.0976 164.175 80.0976C166.103 80.0976 167.769 80.2417 169.175 80.5298C170.591 80.8179 171.755 81.2361 172.667 81.7845C173.58 82.3329 174.255 83.0067 174.693 83.806C175.14 84.596 175.363 85.5022 175.363 86.5246C175.363 87.2217 175.233 87.8444 174.972 88.3928C174.721 88.9411 174.376 89.4337 173.938 89.8706C173.501 90.3074 172.984 90.6931 172.388 91.0277C171.792 91.3623 171.15 91.6597 170.46 91.92C169.781 92.1802 169.073 92.4079 168.337 92.6031C167.602 92.789 166.875 92.9563 166.158 93.105C165.265 93.2909 164.436 93.4861 163.672 93.6905C162.909 93.895 162.248 94.1227 161.689 94.3737C161.139 94.6246 160.706 94.9127 160.39 95.238C160.073 95.5541 159.915 95.9258 159.915 96.3534C159.915 96.4463 159.92 96.5439 159.929 96.6461C159.938 96.7484 159.952 96.846 159.971 96.9389H169.231L174.888 91.9897V100.619H153.616Z" fill="#0DEE23"/>
<path d="M179.386 88.7553H193.465V92.1291H179.386V88.7553Z" fill="#0DEE23"/>
<path d="M198.312 100.619C198.098 100.108 197.916 99.5831 197.767 99.0441C197.627 98.505 197.558 97.9102 197.558 97.2596C197.558 96.4788 197.669 95.7864 197.893 95.1823C198.116 94.5781 198.419 94.0437 198.801 93.579C199.192 93.1143 199.648 92.7146 200.17 92.38C200.7 92.0362 201.268 91.7387 201.874 91.4878C202.488 91.2368 203.126 91.0231 203.787 90.8465C204.458 90.6606 205.123 90.4933 205.785 90.3446C206.883 90.1029 207.856 89.8799 208.704 89.6754C209.551 89.4709 210.263 89.2293 210.841 88.9504C211.418 88.6716 211.856 88.337 212.154 87.9466C212.452 87.547 212.601 87.0358 212.601 86.4131C212.601 85.8461 212.494 85.3535 212.279 84.9353C212.065 84.517 211.767 84.1732 211.386 83.9036C211.013 83.6248 210.575 83.4203 210.073 83.2902C209.57 83.1508 209.025 83.0811 208.438 83.0811C207.749 83.0811 207.144 83.1601 206.623 83.3181C206.11 83.4761 205.677 83.7363 205.324 84.0988C204.979 84.452 204.718 84.9167 204.541 85.4929C204.364 86.0599 204.276 86.7616 204.276 87.5981H198.06C198.023 87.375 197.995 87.1334 197.977 86.8732C197.958 86.6129 197.949 86.3806 197.949 86.1761C197.949 85.3675 198.084 84.6565 198.354 84.043C198.633 83.4203 199.015 82.8859 199.499 82.4398C199.993 81.9843 200.575 81.6079 201.245 81.3105C201.925 81.0131 202.67 80.7761 203.48 80.5995C204.29 80.4136 205.151 80.2835 206.064 80.2091C206.976 80.1348 207.912 80.0976 208.871 80.0976C210.799 80.0976 212.466 80.2417 213.872 80.5298C215.287 80.8179 216.451 81.2361 217.364 81.7845C218.276 82.3329 218.951 83.0067 219.389 83.806C219.836 84.596 220.059 85.5022 220.059 86.5246C220.059 87.2217 219.929 87.8444 219.668 88.3928C219.417 88.9411 219.072 89.4337 218.635 89.8706C218.197 90.3074 217.68 90.6931 217.084 91.0277C216.488 91.3623 215.846 91.6597 215.157 91.92C214.477 92.1802 213.769 92.4079 213.034 92.6031C212.298 92.789 211.572 92.9563 210.855 93.105C209.961 93.2909 209.132 93.4861 208.369 93.6905C207.605 93.895 206.944 94.1227 206.385 94.3737C205.836 94.6246 205.403 94.9127 205.086 95.238C204.77 95.5541 204.611 95.9258 204.611 96.3534C204.611 96.4463 204.616 96.5439 204.625 96.6461C204.635 96.7484 204.648 96.846 204.667 96.9389H213.928L219.584 91.9897V100.619H198.312Z" fill="#0DEE23"/>
<path d="M226.862 97.0783V85.5627L222.923 83.2762L231.443 80.6274H233.943V97.0783L237.728 100.619H223.076L226.862 97.0783Z" fill="#0DEE23"/>
<path d="M240.187 95.6145C240.187 95.5029 240.191 95.3914 240.201 95.2799C240.219 95.159 240.238 95.0429 240.257 94.9313L247.087 94.1367C246.956 94.2668 246.859 94.4387 246.793 94.6525C246.728 94.8663 246.696 95.094 246.696 95.3356C246.696 95.6888 246.775 96.0652 246.933 96.4649C247.091 96.8553 247.343 97.2177 247.687 97.5523C248.032 97.8776 248.479 98.1472 249.028 98.3609C249.578 98.5747 250.248 98.6816 251.04 98.6816C251.757 98.6816 252.408 98.6026 252.995 98.4446C253.582 98.2773 254.08 98.0263 254.49 97.6917C254.909 97.3572 255.23 96.9389 255.453 96.437C255.686 95.9258 255.802 95.3263 255.802 94.6386C255.802 93.8764 255.667 93.2351 255.397 92.7146C255.137 92.1942 254.774 91.7759 254.308 91.4599C253.852 91.1439 253.307 90.9208 252.674 90.7907C252.041 90.6513 251.361 90.5816 250.634 90.5816C249.908 90.5816 249.2 90.6513 248.511 90.7907C247.832 90.9208 247.189 91.0881 246.584 91.2926C245.979 91.4971 245.425 91.7248 244.922 91.9757C244.419 92.2174 243.981 92.4497 243.609 92.6728L240.773 91.4878L241.891 80.6274C242.598 80.6645 243.441 80.7064 244.419 80.7528C245.406 80.79 246.463 80.8272 247.59 80.8644C248.726 80.8923 249.908 80.9155 251.137 80.9341C252.366 80.9527 253.582 80.962 254.783 80.962C255.602 80.962 256.403 80.9573 257.185 80.948C257.967 80.9387 258.694 80.9201 259.364 80.8923C260.044 80.8644 260.649 80.8318 261.18 80.7947C261.72 80.7482 262.162 80.6924 262.507 80.6274C262.553 80.7854 262.586 80.948 262.605 81.1153C262.633 81.2826 262.647 81.4546 262.647 81.6312C262.647 82.4769 262.563 83.1787 262.395 83.7363C262.228 84.2847 261.948 84.7262 261.557 85.0608C261.175 85.3861 260.668 85.6138 260.035 85.7439C259.411 85.874 258.638 85.9391 257.716 85.9391C256.412 85.9391 255.206 85.8508 254.098 85.6742C253 85.4976 251.947 85.3024 250.942 85.0886C250.448 84.9771 249.959 84.8749 249.475 84.7819C249 84.6797 248.525 84.5914 248.05 84.517C247.576 84.4334 247.096 84.3683 246.612 84.3219C246.137 84.2754 245.657 84.2522 245.173 84.2522C245.173 84.2614 245.164 84.3497 245.145 84.517C245.127 84.6843 245.103 84.9028 245.075 85.1723C245.047 85.4418 245.015 85.7532 244.978 86.1064C244.94 86.4503 244.898 86.8127 244.852 87.1938C244.815 87.5656 244.777 87.9374 244.74 88.3091C244.703 88.6809 244.666 89.0248 244.628 89.3408C245.15 89.0806 245.764 88.8343 246.472 88.6019C247.18 88.3695 247.929 88.1697 248.721 88.0024C249.512 87.8258 250.327 87.6911 251.165 87.5981C252.003 87.4959 252.818 87.4448 253.61 87.4448C254.373 87.4448 255.155 87.4819 255.956 87.5563C256.766 87.6213 257.553 87.7468 258.317 87.9327C259.08 88.1186 259.797 88.3695 260.468 88.6855C261.147 88.9923 261.739 89.3873 262.242 89.8706C262.754 90.3446 263.154 90.9162 263.443 91.5854C263.741 92.2546 263.89 93.0353 263.89 93.9275C263.89 95.1172 263.564 96.1628 262.912 97.0644C262.269 97.9659 261.376 98.7188 260.23 99.3229C259.094 99.927 257.744 100.382 256.18 100.689C254.615 101.005 252.92 101.163 251.095 101.163C249.531 101.163 248.083 101.047 246.751 100.815C245.42 100.582 244.265 100.238 243.287 99.783C242.319 99.3183 241.56 98.7374 241.011 98.0403C240.461 97.3432 240.187 96.5346 240.187 95.6145Z" fill="#0DEE23"/>
<path d="M270.133 97.0783V85.5627L266.194 83.2762L274.715 80.6274H277.215V97.0783L281 100.619H266.348L270.133 97.0783Z" fill="#0DEE23"/>
</svg>
