<svg width="50" height="50" viewBox="0 0 50 50" fill="none" xmlns="http://www.w3.org/2000/svg">
<g clip-path="url(#clip0_66_317)">
<path d="M5.21477 5.21524C4.96137 5.46763 4.78037 5.75721 4.67177 6.082C4.59252 6.31776 4.55241 6.65722 4.55241 7.09843C4.55143 9.23206 4.55339 11.9409 4.56023 15.224C4.56121 15.9401 4.51327 16.4332 4.41446 16.7032C3.69241 18.6774 0.898166 18.6637 0.141879 16.7022C0.0469768 16.4547 -0.0009637 15.9969 1.46776e-05 15.3277C0.00294981 12.5122 0.00392819 9.7036 0.00294981 6.9018C0.00294981 5.03817 0.692706 3.31346 2.00178 2.00354C3.31182 0.693617 5.0367 0.0039281 6.90051 0.0039281C9.70259 0.0039281 12.5115 0.00294982 15.3273 1.49737e-05C15.9965 -0.000963308 16.4554 0.0459942 16.7019 0.140888C18.6636 0.8971 18.6782 3.69107 16.7039 4.41305C16.4338 4.51185 15.9407 4.56077 15.2246 4.55979C11.9411 4.55294 9.23199 4.55098 7.09815 4.55294C6.6569 4.55294 6.3174 4.59207 6.08161 4.67229C5.75679 4.78088 5.46719 4.96186 5.21477 5.21524Z" fill="white"/>
<path d="M47.9923 2.00156C49.3024 3.3105 49.9931 5.03619 49.9941 6.89982C49.9941 9.7026 49.996 12.5122 49.9999 15.3277C50.0009 15.9969 49.953 16.4557 49.8581 16.7032C49.1028 18.6646 46.3075 18.6793 45.5845 16.7051C45.4857 16.4351 45.4368 15.9421 45.4378 15.226C45.4436 11.9419 45.4456 9.23302 45.4436 7.09841C45.4427 6.65623 45.4035 6.31774 45.3233 6.081C45.2147 5.75621 45.0337 5.46762 44.7803 5.21424C44.5269 4.96184 44.2383 4.78086 43.9135 4.6713C43.6767 4.59205 43.3372 4.55292 42.8959 4.55292C40.7611 4.55195 38.052 4.55488 34.7676 4.56271C34.0514 4.56368 33.5583 4.51575 33.2883 4.41694C31.3129 3.69497 31.3256 0.900018 33.2883 0.143806C33.5348 0.0479341 33.9937 0.000976562 34.6629 0.000976562C37.4796 0.00391141 40.2886 0.00391141 43.0916 0.00293313C44.9564 0.00195484 46.6813 0.691644 47.9923 2.00156Z" fill="#464646"/>
<path d="M22.7169 20.4598C22.715 21.7218 21.6897 22.7421 20.4285 22.7402L11.3648 22.7245C10.1027 22.7226 9.08227 21.6973 9.08423 20.4363L9.09989 11.3735C9.10184 10.1115 10.1272 9.09119 11.3883 9.09314L20.452 9.1088C21.7141 9.11075 22.7346 10.136 22.7326 11.397L22.7169 20.4598ZM18.1871 14.7907C18.188 14.1548 17.6734 13.6382 17.0375 13.6373L14.7931 13.6334C14.1571 13.6324 13.6405 14.1469 13.6396 14.7828L13.6356 17.027C13.6347 17.6629 14.1493 18.1794 14.7852 18.1804L17.0296 18.1843C17.6656 18.1853 18.1822 17.6707 18.1831 17.0348L18.1871 14.7907Z" fill="#0DEE23"/>
<path d="M40.2338 9.76429C40.681 10.2104 40.904 10.7807 40.903 11.4763C40.9001 14.2282 40.903 16.9909 40.9099 19.7643C40.9119 20.5039 40.8629 21.0038 40.7622 21.264C39.9951 23.245 37.2136 23.1824 36.4837 21.1926C36.3996 20.9627 36.3585 20.6281 36.3604 20.1869C36.3722 17.0437 36.3692 15.2251 36.3516 14.732C36.3409 14.4229 36.2352 14.1675 36.0337 13.967C35.8321 13.7655 35.5768 13.6598 35.2686 13.6491C34.7755 13.6314 32.9567 13.6295 29.8122 13.6432C29.3719 13.6451 29.0363 13.6041 28.8064 13.5199C26.8164 12.7911 26.7518 10.0098 28.733 9.24189C28.9933 9.14211 29.4932 9.09222 30.2329 9.09417C33.0066 9.10004 35.7695 9.10004 38.5217 9.09613C39.2173 9.09515 39.7877 9.3182 40.2338 9.76429Z" fill="#464646"/>
<path d="M29.5459 15.9147C30.5811 15.9147 31.4469 16.6122 31.7287 17.5601C31.8696 18.0375 31.8187 18.7507 31.8187 19.3191C31.8187 19.8885 31.8696 20.6016 31.7277 21.078C31.4459 22.026 30.5801 22.7235 29.545 22.7235C28.5098 22.7235 27.644 22.026 27.3622 21.078C27.2203 20.6006 27.2722 19.8875 27.2722 19.3191C27.2722 18.7497 27.2213 18.0366 27.3632 17.5592C27.6449 16.6122 28.5108 15.9147 29.5459 15.9147Z" fill="#0DEE23"/>
<path d="M14.8265 31.8177C14.1553 31.8196 13.6573 32.2863 13.6426 32.9711C13.6319 33.5003 13.7043 34.2066 13.5595 34.6811C13.3334 35.4197 12.8599 35.9294 12.1398 36.2082C10.9628 36.6651 9.66257 36.0106 9.23013 34.8728C9.13229 34.6156 9.08533 34.1254 9.08826 33.4015C9.09707 31.3481 9.09903 30.0646 9.09218 29.549C9.08729 29.235 9.14599 28.9034 9.28687 28.6109C9.7154 27.7157 10.4609 27.2667 11.5234 27.2647C16.3801 27.2559 19.3642 27.2589 20.4756 27.2755C22.9949 27.3107 23.58 30.7689 21.2475 31.6807C21.0039 31.7756 20.6361 31.8226 20.143 31.8206C18.42 31.8138 16.6472 31.8128 14.8265 31.8177Z" fill="#464646"/>
<path d="M40.9069 38.6275C40.9069 39.8817 39.8894 40.8991 38.6351 40.8991H29.544C28.2897 40.8991 27.2722 39.8817 27.2722 38.6275V29.5354C27.2722 28.2812 28.2897 27.2638 29.544 27.2638H38.6351C39.8894 27.2638 40.9069 28.2812 40.9069 29.5354V38.6275ZM36.3604 32.9779C36.3594 32.3333 35.835 31.8108 35.1902 31.8118L32.9811 31.8157C32.3363 31.8167 31.8138 32.3411 31.8148 32.9858L31.8187 35.1947C31.8197 35.8394 32.3441 36.3618 32.9889 36.3608L35.1981 36.3569C35.8428 36.3559 36.3653 35.8316 36.3643 35.1869L36.3604 32.9779Z" fill="#0DEE23"/>
<path d="M2.00176 47.9945C0.692691 46.6856 0.00293513 44.9608 0.00391351 43.0972C0.00391351 40.2974 0.00293513 37.4897 0 34.6752C0 34.006 0.0469621 33.5482 0.141865 33.3017C0.898151 31.3402 3.69142 31.3265 4.41346 33.3007C4.5113 33.5697 4.56022 34.0628 4.55924 34.7789C4.55239 38.061 4.54946 40.7679 4.55141 42.9016C4.55141 43.3428 4.59055 43.6812 4.6698 43.918C4.77938 44.2428 4.96038 44.5314 5.2128 44.7838C5.4662 45.0371 5.75482 45.2181 6.07964 45.3267C6.31543 45.406 6.65493 45.4461 7.09617 45.4461C9.22904 45.448 11.9372 45.4451 15.2187 45.4392C15.9348 45.4382 16.4279 45.4872 16.698 45.585C18.6714 46.307 18.6577 49.1 16.696 49.8562C16.4495 49.9511 15.9916 49.998 15.3224 49.997C12.5076 49.9941 9.69964 49.9931 6.89854 49.9931C5.03571 49.9931 3.31083 49.3034 2.00176 47.9945Z" fill="#464646"/>
<path d="M47.9952 47.9984C46.6852 49.3073 44.9603 49.997 43.0965 49.997C40.2954 49.9961 37.4874 49.997 34.6717 50C34.0025 50.0009 33.5446 49.953 33.298 49.8581C31.3364 49.1019 31.3227 46.3089 33.2971 45.5869C33.5661 45.4881 34.0592 45.4402 34.7754 45.4412C38.0588 45.448 40.767 45.45 42.9008 45.449C43.3421 45.449 43.6806 45.4089 43.9173 45.3296C44.2422 45.2211 44.5308 45.0401 44.7832 44.7867C45.0366 44.5343 45.2176 44.2447 45.3262 43.9199C45.4064 43.6842 45.4456 43.3457 45.4456 42.9035C45.4475 40.7709 45.4456 38.062 45.4387 34.7799C45.4377 34.0638 45.4867 33.5707 45.5855 33.3007C46.3075 31.3275 49.1008 31.3412 49.8571 33.3027C49.952 33.5502 49.9989 34.008 49.998 34.6771C49.995 37.4917 49.9941 40.3003 49.9941 43.1011C49.9941 44.9648 49.3043 46.6885 47.9952 47.9984Z" fill="white"/>
<path d="M22.7257 38.6344C22.7257 39.8875 21.7092 40.904 20.4559 40.904C19.2026 40.904 18.186 39.8875 18.186 38.6344C18.186 37.3812 19.2026 36.3647 20.4559 36.3647C21.7092 36.3647 22.7257 37.3812 22.7257 38.6344Z" fill="#0DEE23"/>
</g>
<defs>
<clipPath id="clip0_66_317">
<rect width="50" height="50" fill="white"/>
</clipPath>
</defs>
</svg>
