<svg width="18" height="16" viewBox="0 0 18 16" fill="none" xmlns="http://www.w3.org/2000/svg">
<path d="M13.3748 0.291626H4.62484C3.57502 0.291626 2.5682 0.708664 1.82587 1.451C1.08354 2.19333 0.666504 3.20014 0.666504 4.24996V11.75C0.666504 12.2698 0.768889 12.7845 0.967814 13.2647C1.16674 13.745 1.45831 14.1814 1.82587 14.5489C2.5682 15.2913 3.57502 15.7083 4.62484 15.7083H13.3748C14.424 15.7061 15.4295 15.2883 16.1714 14.5465C16.9132 13.8046 17.331 12.7991 17.3332 11.75V4.24996C17.331 3.20082 16.9132 2.19528 16.1714 1.45343C15.4295 0.711572 14.424 0.293828 13.3748 0.291626ZM10.3332 7.22496C9.92317 7.45878 9.45932 7.58175 8.98734 7.58175C8.51535 7.58175 8.0515 7.45878 7.6415 7.22496L1.93317 3.94996C2.00698 3.28771 2.32234 2.67592 2.81893 2.2316C3.31553 1.78728 3.95849 1.54163 4.62484 1.54163H13.3748C14.0407 1.54345 14.6826 1.78974 15.1788 2.23371C15.6751 2.67768 15.9909 3.28843 16.0665 3.94996L10.3332 7.22496Z" fill="#0DEE23"/>
</svg>
