<svg width="49" height="62" viewBox="0 0 49 62" fill="none" xmlns="http://www.w3.org/2000/svg">
<g filter="url(#filter0_i_1_795)">
<path d="M16.8362 8.28315C16.8195 7.32792 16.9933 6.37893 17.3473 5.49157C17.7013 4.60422 18.2286 3.79625 18.8982 3.11484C19.5678 2.43342 20.3665 1.89219 21.2475 1.52274C22.1286 1.15329 23.0744 0.963013 24.0298 0.963013C24.9851 0.963013 25.931 1.15329 26.812 1.52274C27.6931 1.89219 28.4917 2.43342 29.1613 3.11484C29.831 3.79625 30.3582 4.60422 30.7122 5.49157C31.0663 6.37893 31.24 7.32792 31.2234 8.28315V16.5628C31.2248 17.2672 31.1716 17.9716 31.0637 18.676C31.0214 18.9326 30.9871 19.1893 30.9609 19.446C30.8821 20.2553 30.9784 21.3141 31.5296 22.0272L30.2127 23.296C33.5637 25.0129 36.3751 27.6224 38.3364 30.8364C40.2978 34.0504 41.3329 37.7439 41.3274 41.5091C41.3292 43.6051 41.0105 45.6891 40.3824 47.6888L38.2015 61.9228H20.4805V61.9163C9.53648 61.68 0.755859 54.5444 0.755859 41.5069C0.755859 33.8463 4.4243 27.6775 9.97398 24.1994L9.96086 24.1885C10.3393 23.926 10.7855 23.6569 11.2624 23.3703H11.2668C12.8418 22.4253 14.7668 21.2703 15.7796 19.3847C16.6612 17.7506 16.8296 15.0972 16.8296 13.8656H16.8362V8.28315Z" fill="url(#paint0_linear_1_795)"/>
</g>
<path d="M16.8362 8.28315C16.8195 7.32792 16.9933 6.37893 17.3473 5.49157C17.7013 4.60422 18.2286 3.79625 18.8982 3.11484C19.5678 2.43342 20.3665 1.89219 21.2475 1.52274C22.1286 1.15329 23.0744 0.963013 24.0298 0.963013C24.9851 0.963013 25.931 1.15329 26.812 1.52274C27.6931 1.89219 28.4917 2.43342 29.1613 3.11484C29.831 3.79625 30.3582 4.60422 30.7122 5.49157C31.0663 6.37893 31.24 7.32792 31.2234 8.28315V16.5628C31.2248 17.2672 31.1716 17.9716 31.0637 18.676C31.0214 18.9326 30.9871 19.1893 30.9609 19.446C30.8821 20.2553 30.9784 21.3141 31.5296 22.0272L30.2127 23.296C33.5637 25.0129 36.3751 27.6224 38.3364 30.8364C40.2978 34.0504 41.3329 37.7439 41.3274 41.5091C41.3292 43.6051 41.0105 45.6891 40.3824 47.6888L38.2015 61.9228H20.4805V61.9163C9.53648 61.68 0.755859 54.5444 0.755859 41.5069C0.755859 33.8463 4.4243 27.6775 9.97398 24.1994L9.96086 24.1885C10.3393 23.926 10.7855 23.6569 11.2624 23.3703H11.2668C12.8418 22.4253 14.7668 21.2703 15.7796 19.3847C16.6612 17.7506 16.8296 15.0972 16.8296 13.8656H16.8362V8.28315Z" fill="url(#paint1_radial_1_795)"/>
<path d="M16.8362 8.28315C16.8195 7.32792 16.9933 6.37893 17.3473 5.49157C17.7013 4.60422 18.2286 3.79625 18.8982 3.11484C19.5678 2.43342 20.3665 1.89219 21.2475 1.52274C22.1286 1.15329 23.0744 0.963013 24.0298 0.963013C24.9851 0.963013 25.931 1.15329 26.812 1.52274C27.6931 1.89219 28.4917 2.43342 29.1613 3.11484C29.831 3.79625 30.3582 4.60422 30.7122 5.49157C31.0663 6.37893 31.24 7.32792 31.2234 8.28315V16.5628C31.2248 17.2672 31.1716 17.9716 31.0637 18.676C31.0214 18.9326 30.9871 19.1893 30.9609 19.446C30.8821 20.2553 30.9784 21.3141 31.5296 22.0272L30.2127 23.296C33.5637 25.0129 36.3751 27.6224 38.3364 30.8364C40.2978 34.0504 41.3329 37.7439 41.3274 41.5091C41.3292 43.6051 41.0105 45.6891 40.3824 47.6888L38.2015 61.9228H20.4805V61.9163C9.53648 61.68 0.755859 54.5444 0.755859 41.5069C0.755859 33.8463 4.4243 27.6775 9.97398 24.1994L9.96086 24.1885C10.3393 23.926 10.7855 23.6569 11.2624 23.3703H11.2668C12.8418 22.4253 14.7668 21.2703 15.7796 19.3847C16.6612 17.7506 16.8296 15.0972 16.8296 13.8656H16.8362V8.28315Z" fill="url(#paint2_radial_1_795)"/>
<path d="M16.8362 8.28315C16.8195 7.32792 16.9933 6.37893 17.3473 5.49157C17.7013 4.60422 18.2286 3.79625 18.8982 3.11484C19.5678 2.43342 20.3665 1.89219 21.2475 1.52274C22.1286 1.15329 23.0744 0.963013 24.0298 0.963013C24.9851 0.963013 25.931 1.15329 26.812 1.52274C27.6931 1.89219 28.4917 2.43342 29.1613 3.11484C29.831 3.79625 30.3582 4.60422 30.7122 5.49157C31.0663 6.37893 31.24 7.32792 31.2234 8.28315V16.5628C31.2248 17.2672 31.1716 17.9716 31.0637 18.676C31.0214 18.9326 30.9871 19.1893 30.9609 19.446C30.8821 20.2553 30.9784 21.3141 31.5296 22.0272L30.2127 23.296C33.5637 25.0129 36.3751 27.6224 38.3364 30.8364C40.2978 34.0504 41.3329 37.7439 41.3274 41.5091C41.3292 43.6051 41.0105 45.6891 40.3824 47.6888L38.2015 61.9228H20.4805V61.9163C9.53648 61.68 0.755859 54.5444 0.755859 41.5069C0.755859 33.8463 4.4243 27.6775 9.97398 24.1994L9.96086 24.1885C10.3393 23.926 10.7855 23.6569 11.2624 23.3703H11.2668C12.8418 22.4253 14.7668 21.2703 15.7796 19.3847C16.6612 17.7506 16.8296 15.0972 16.8296 13.8656H16.8362V8.28315Z" fill="url(#paint3_radial_1_795)"/>
<path d="M16.8362 8.28315C16.8195 7.32792 16.9933 6.37893 17.3473 5.49157C17.7013 4.60422 18.2286 3.79625 18.8982 3.11484C19.5678 2.43342 20.3665 1.89219 21.2475 1.52274C22.1286 1.15329 23.0744 0.963013 24.0298 0.963013C24.9851 0.963013 25.931 1.15329 26.812 1.52274C27.6931 1.89219 28.4917 2.43342 29.1613 3.11484C29.831 3.79625 30.3582 4.60422 30.7122 5.49157C31.0663 6.37893 31.24 7.32792 31.2234 8.28315V16.5628C31.2248 17.2672 31.1716 17.9716 31.0637 18.676C31.0214 18.9326 30.9871 19.1893 30.9609 19.446C30.8821 20.2553 30.9784 21.3141 31.5296 22.0272L30.2127 23.296C33.5637 25.0129 36.3751 27.6224 38.3364 30.8364C40.2978 34.0504 41.3329 37.7439 41.3274 41.5091C41.3292 43.6051 41.0105 45.6891 40.3824 47.6888L38.2015 61.9228H20.4805V61.9163C9.53648 61.68 0.755859 54.5444 0.755859 41.5069C0.755859 33.8463 4.4243 27.6775 9.97398 24.1994L9.96086 24.1885C10.3393 23.926 10.7855 23.6569 11.2624 23.3703H11.2668C12.8418 22.4253 14.7668 21.2703 15.7796 19.3847C16.6612 17.7506 16.8296 15.0972 16.8296 13.8656H16.8362V8.28315Z" fill="url(#paint4_linear_1_795)"/>
<g filter="url(#filter1_f_1_795)">
<path d="M41.7977 29.1759C41.7983 28.4427 41.6543 27.7165 41.3739 27.0389C41.0936 26.3614 40.6824 25.7457 40.1639 25.2272C39.6454 24.7087 39.0298 24.2976 38.3522 24.0172C37.6747 23.7369 36.9485 23.5929 36.2152 23.5934H30.0333C28.8871 23.5934 27.7686 23.9462 26.8299 24.604C25.8911 25.2617 25.1776 26.1925 24.7862 27.2698C24.3948 28.3472 24.3446 29.5189 24.6423 30.6258C24.94 31.7328 25.5712 32.7212 26.4502 33.4569C25.7801 33.9617 25.2321 34.6107 24.8469 35.3559C24.4616 36.1012 24.2489 36.9236 24.2245 37.7621C24.2002 38.6007 24.3647 39.4341 24.7061 40.2004C25.0474 40.9668 25.5568 41.6466 26.1965 42.1894C25.5782 42.7135 25.0817 43.366 24.7413 44.1016C24.4009 44.8371 24.2249 45.638 24.2255 46.4484V46.7219C24.2255 48.2531 24.838 49.6378 25.8355 50.6463C25.0702 51.4035 24.5472 52.3711 24.333 53.4262C24.1187 54.4813 24.2228 55.5763 24.6321 56.5721C25.0414 57.5678 25.7374 58.4195 26.6317 59.019C27.526 59.6184 28.5783 59.9386 29.6549 59.9388H35.7886C36.7431 59.9394 37.681 59.6885 38.5076 59.2113C39.3343 58.7342 40.0206 58.0476 40.4975 57.2207C40.9743 56.3939 41.2249 55.456 41.2239 54.5015C41.2229 53.547 40.9704 52.6096 40.4918 51.7838C41.455 51.3345 42.2697 50.6193 42.8402 49.7226C43.4107 48.8258 43.713 47.7847 43.7118 46.7219V46.4484C43.7118 44.7203 42.9286 43.1759 41.6949 42.1522C42.3985 41.5414 42.9386 40.7647 43.2662 39.8924C43.5939 39.0202 43.6987 38.0799 43.5712 37.1569C43.4437 36.234 43.0879 35.3574 42.536 34.6066C41.9842 33.8559 41.2537 33.2547 40.4108 32.8575C41.3066 31.8405 41.7999 30.5312 41.7977 29.1759Z" fill="url(#paint5_linear_1_795)"/>
</g>
<g filter="url(#filter2_i_1_795)">
<path d="M40.4156 33.2032C43.9313 33.2032 46.7812 30.3532 46.7812 26.8375C46.7812 23.3219 43.9313 20.4719 40.4156 20.4719H33.3653C29.8497 20.4719 26.9997 23.3219 26.9997 26.8375C26.9997 30.3532 29.8497 33.2032 33.3653 33.2032H40.4156Z" fill="url(#paint6_linear_1_795)"/>
<path d="M40.4156 33.2032C43.9313 33.2032 46.7812 30.3532 46.7812 26.8375C46.7812 23.3219 43.9313 20.4719 40.4156 20.4719H33.3653C29.8497 20.4719 26.9997 23.3219 26.9997 26.8375C26.9997 30.3532 29.8497 33.2032 33.3653 33.2032H40.4156Z" fill="url(#paint7_radial_1_795)"/>
</g>
<g filter="url(#filter3_i_1_795)">
<path d="M39.9295 61.9228C43.3509 61.9228 46.1245 59.1492 46.1245 55.7278C46.1245 52.3064 43.3509 49.5328 39.9295 49.5328H32.9361C29.5147 49.5328 26.7411 52.3064 26.7411 55.7278C26.7411 59.1492 29.5147 61.9228 32.9361 61.9228H39.9295Z" fill="url(#paint8_linear_1_795)"/>
<path d="M39.9295 61.9228C43.3509 61.9228 46.1245 59.1492 46.1245 55.7278C46.1245 52.3064 43.3509 49.5328 39.9295 49.5328H32.9361C29.5147 49.5328 26.7411 52.3064 26.7411 55.7278C26.7411 59.1492 29.5147 61.9228 32.9361 61.9228H39.9295Z" fill="url(#paint9_radial_1_795)"/>
<path d="M39.9295 61.9228C43.3509 61.9228 46.1245 59.1492 46.1245 55.7278C46.1245 52.3064 43.3509 49.5328 39.9295 49.5328H32.9361C29.5147 49.5328 26.7411 52.3064 26.7411 55.7278C26.7411 59.1492 29.5147 61.9228 32.9361 61.9228H39.9295Z" fill="url(#paint10_radial_1_795)"/>
</g>
<path d="M39.9295 61.9228C43.3509 61.9228 46.1245 59.1492 46.1245 55.7278C46.1245 52.3064 43.3509 49.5328 39.9295 49.5328H32.9361C29.5147 49.5328 26.7411 52.3064 26.7411 55.7278C26.7411 59.1492 29.5147 61.9228 32.9361 61.9228H39.9295Z" fill="url(#paint11_linear_1_795)"/>
<path d="M39.9295 61.9228C43.3509 61.9228 46.1245 59.1492 46.1245 55.7278C46.1245 52.3064 43.3509 49.5328 39.9295 49.5328H32.9361C29.5147 49.5328 26.7411 52.3064 26.7411 55.7278C26.7411 59.1492 29.5147 61.9228 32.9361 61.9228H39.9295Z" fill="url(#paint12_radial_1_795)"/>
<g filter="url(#filter4_f_1_795)">
<path d="M43.0554 53.2166H34.5372C33.6456 53.2166 32.9229 53.9393 32.9229 54.8309C32.9229 55.7225 33.6456 56.4453 34.5372 56.4453H43.0554C43.9469 56.4453 44.6697 55.7225 44.6697 54.8309C44.6697 53.9393 43.9469 53.2166 43.0554 53.2166Z" fill="url(#paint13_linear_1_795)"/>
</g>
<path d="M42.4407 53.2166C46.0434 53.2166 48.9639 50.2961 48.9639 46.6935C48.9639 43.0909 46.0434 40.1703 42.4407 40.1703H33.2642C29.6616 40.1703 26.7411 43.0909 26.7411 46.6935C26.7411 50.2961 29.6616 53.2166 33.2642 53.2166H42.4407Z" fill="#C4C4C4" fill-opacity="0.66"/>
<g filter="url(#filter5_i_1_795)">
<path d="M48.9639 46.851V46.536C48.9639 43.0203 46.1139 40.1703 42.5982 40.1703H33.1067C29.591 40.1703 26.7411 43.0203 26.7411 46.536V46.851C26.7411 50.3666 29.591 53.2166 33.1067 53.2166H42.5982C46.1139 53.2166 48.9639 50.3666 48.9639 46.851Z" fill="url(#paint14_linear_1_795)"/>
<path d="M48.9639 46.851V46.536C48.9639 43.0203 46.1139 40.1703 42.5982 40.1703H33.1067C29.591 40.1703 26.7411 43.0203 26.7411 46.536V46.851C26.7411 50.3666 29.591 53.2166 33.1067 53.2166H42.5982C46.1139 53.2166 48.9639 50.3666 48.9639 46.851Z" fill="url(#paint15_radial_1_795)"/>
<path d="M48.9639 46.851V46.536C48.9639 43.0203 46.1139 40.1703 42.5982 40.1703H33.1067C29.591 40.1703 26.7411 43.0203 26.7411 46.536V46.851C26.7411 50.3666 29.591 53.2166 33.1067 53.2166H42.5982C46.1139 53.2166 48.9639 50.3666 48.9639 46.851Z" fill="url(#paint16_radial_1_795)"/>
</g>
<g filter="url(#filter6_f_1_795)">
<path d="M45.1664 44.751H33.6842C32.7926 44.751 32.0698 45.4738 32.0698 46.3653C32.0698 47.2569 32.7926 47.9797 33.6842 47.9797H45.1664C46.058 47.9797 46.7808 47.2569 46.7808 46.3653C46.7808 45.4738 46.058 44.751 45.1664 44.751Z" fill="url(#paint17_linear_1_795)"/>
</g>
<g filter="url(#filter7_i_1_795)">
<path d="M48.8657 36.8278V36.7994C48.8657 33.2838 46.0157 30.4338 42.5001 30.4338H33.107C29.5913 30.4338 26.7413 33.2838 26.7413 36.7994V36.8278C26.7413 40.3435 29.5913 43.1935 33.107 43.1935H42.5001C46.0157 43.1935 48.8657 40.3435 48.8657 36.8278Z" fill="url(#paint18_linear_1_795)"/>
<path d="M48.8657 36.8278V36.7994C48.8657 33.2838 46.0157 30.4338 42.5001 30.4338H33.107C29.5913 30.4338 26.7413 33.2838 26.7413 36.7994V36.8278C26.7413 40.3435 29.5913 43.1935 33.107 43.1935H42.5001C46.0157 43.1935 48.8657 40.3435 48.8657 36.8278Z" fill="url(#paint19_radial_1_795)"/>
</g>
<path d="M24.0287 1.09064C22.1215 1.0918 20.2928 1.84995 18.9442 3.19855C17.5956 4.54716 16.8374 6.37592 16.8362 8.28314V13.8678L16.8319 13.8656C16.8319 15.095 16.6613 17.7506 15.7819 19.3847C14.7647 21.2725 12.8419 22.4253 11.2669 23.3681C10.7856 23.6569 10.3394 23.9238 9.96094 24.1863C12.1375 25.9297 16.5934 29.4144 16.7028 29.3313C19.2358 27.9612 21.7763 26.6049 24.3241 25.2625L24.2191 23.7531C26.0931 23.703 27.8736 22.9236 29.1817 21.5807C30.4899 20.2378 31.2224 18.4375 31.2234 16.5628V8.28314C31.2223 6.37554 30.4638 4.54645 29.1148 3.19778C27.7657 1.84911 25.9363 1.09122 24.0287 1.09064Z" fill="url(#paint20_radial_1_795)"/>
<path d="M24.0287 1.09064C22.1215 1.0918 20.2928 1.84995 18.9442 3.19855C17.5956 4.54716 16.8374 6.37592 16.8362 8.28314V13.8678L16.8319 13.8656C16.8319 15.095 16.6613 17.7506 15.7819 19.3847C14.7647 21.2725 12.8419 22.4253 11.2669 23.3681C10.7856 23.6569 10.3394 23.9238 9.96094 24.1863C12.1375 25.9297 16.5934 29.4144 16.7028 29.3313C19.2358 27.9612 21.7763 26.6049 24.3241 25.2625L24.2191 23.7531C26.0931 23.703 27.8736 22.9236 29.1817 21.5807C30.4899 20.2378 31.2224 18.4375 31.2234 16.5628V8.28314C31.2223 6.37554 30.4638 4.54645 29.1148 3.19778C27.7657 1.84911 25.9363 1.09122 24.0287 1.09064Z" fill="url(#paint21_radial_1_795)"/>
<path d="M19.4784 2.71161C18.6515 3.38546 17.9852 4.23522 17.5281 5.19903C17.071 6.16284 16.8345 7.21645 16.8359 8.28317V8.70317H20.0866C20.0994 7.86214 20.0365 7.02165 19.8984 6.19192L19.8613 5.99286C19.6819 5.01286 19.4763 3.89286 19.4784 2.71161Z" fill="#FFBF71"/>
<path d="M19.4784 2.71161C18.6515 3.38546 17.9852 4.23522 17.5281 5.19903C17.071 6.16284 16.8345 7.21645 16.8359 8.28317V8.70317H20.0866C20.0994 7.86214 20.0365 7.02165 19.8984 6.19192L19.8613 5.99286C19.6819 5.01286 19.4763 3.89286 19.4784 2.71161Z" fill="url(#paint22_radial_1_795)"/>
<g filter="url(#filter8_f_1_795)">
<path d="M41.9182 22.2088H33.9994C32.4796 22.2088 31.2476 23.4409 31.2476 24.9607C31.2476 26.4805 32.4796 27.7126 33.9994 27.7126H41.9182C43.438 27.7126 44.6701 26.4805 44.6701 24.9607C44.6701 23.4409 43.438 22.2088 41.9182 22.2088Z" fill="url(#paint23_linear_1_795)"/>
</g>
<g filter="url(#filter9_f_1_795)">
<path d="M44.0292 32H33.8442C32.3243 32 31.0923 33.2321 31.0923 34.7519C31.0923 36.2717 32.3243 37.5038 33.8442 37.5038H44.0292C45.549 37.5038 46.781 36.2717 46.781 34.7519C46.781 33.2321 45.549 32 44.0292 32Z" fill="url(#paint24_linear_1_795)"/>
</g>
<g filter="url(#filter10_f_1_795)">
<path d="M29.4078 6.94218C29.4078 5.21094 28.0049 3.8075 26.2742 3.8075C24.5436 3.8075 23.1406 5.21094 23.1406 6.94218V18.1662C23.1406 19.8975 24.5436 21.3009 26.2742 21.3009C28.0049 21.3009 29.4078 19.8975 29.4078 18.1662V6.94218Z" fill="url(#paint25_linear_1_795)"/>
</g>
<defs>
<filter id="filter0_i_1_795" x="0.755859" y="0.963013" width="40.8218" height="60.9598" filterUnits="userSpaceOnUse" color-interpolation-filters="sRGB">
<feFlood flood-opacity="0" result="BackgroundImageFix"/>
<feBlend mode="normal" in="SourceGraphic" in2="BackgroundImageFix" result="shape"/>
<feColorMatrix in="SourceAlpha" type="matrix" values="0 0 0 0 0 0 0 0 0 0 0 0 0 0 0 0 0 0 127 0" result="hardAlpha"/>
<feOffset dx="0.25"/>
<feGaussianBlur stdDeviation="0.5"/>
<feComposite in2="hardAlpha" operator="arithmetic" k2="-1" k3="1"/>
<feColorMatrix type="matrix" values="0 0 0 0 0.847059 0 0 0 0 0.458824 0 0 0 0 0.360784 0 0 0 1 0"/>
<feBlend mode="normal" in2="shape" result="effect1_innerShadow_1_795"/>
</filter>
<filter id="filter1_f_1_795" x="23.2222" y="22.5934" width="21.4897" height="38.3453" filterUnits="userSpaceOnUse" color-interpolation-filters="sRGB">
<feFlood flood-opacity="0" result="BackgroundImageFix"/>
<feBlend mode="normal" in="SourceGraphic" in2="BackgroundImageFix" result="shape"/>
<feGaussianBlur stdDeviation="0.5" result="effect1_foregroundBlur_1_795"/>
</filter>
<filter id="filter2_i_1_795" x="26.9995" y="20.4719" width="20.0317" height="12.7313" filterUnits="userSpaceOnUse" color-interpolation-filters="sRGB">
<feFlood flood-opacity="0" result="BackgroundImageFix"/>
<feBlend mode="normal" in="SourceGraphic" in2="BackgroundImageFix" result="shape"/>
<feColorMatrix in="SourceAlpha" type="matrix" values="0 0 0 0 0 0 0 0 0 0 0 0 0 0 0 0 0 0 127 0" result="hardAlpha"/>
<feOffset dx="0.25"/>
<feGaussianBlur stdDeviation="0.375"/>
<feComposite in2="hardAlpha" operator="arithmetic" k2="-1" k3="1"/>
<feColorMatrix type="matrix" values="0 0 0 0 0.878431 0 0 0 0 0.541176 0 0 0 0 0.0627451 0 0 0 1 0"/>
<feBlend mode="normal" in2="shape" result="effect1_innerShadow_1_795"/>
</filter>
<filter id="filter3_i_1_795" x="26.7412" y="49.2828" width="19.6333" height="12.64" filterUnits="userSpaceOnUse" color-interpolation-filters="sRGB">
<feFlood flood-opacity="0" result="BackgroundImageFix"/>
<feBlend mode="normal" in="SourceGraphic" in2="BackgroundImageFix" result="shape"/>
<feColorMatrix in="SourceAlpha" type="matrix" values="0 0 0 0 0 0 0 0 0 0 0 0 0 0 0 0 0 0 127 0" result="hardAlpha"/>
<feOffset dx="0.25" dy="-0.25"/>
<feGaussianBlur stdDeviation="0.375"/>
<feComposite in2="hardAlpha" operator="arithmetic" k2="-1" k3="1"/>
<feColorMatrix type="matrix" values="0 0 0 0 0.941176 0 0 0 0 0.643137 0 0 0 0 0.215686 0 0 0 1 0"/>
<feBlend mode="normal" in2="shape" result="effect1_innerShadow_1_795"/>
</filter>
<filter id="filter4_f_1_795" x="32.2979" y="52.5916" width="12.9971" height="4.47876" filterUnits="userSpaceOnUse" color-interpolation-filters="sRGB">
<feFlood flood-opacity="0" result="BackgroundImageFix"/>
<feBlend mode="normal" in="SourceGraphic" in2="BackgroundImageFix" result="shape"/>
<feGaussianBlur stdDeviation="0.3125" result="effect1_foregroundBlur_1_795"/>
</filter>
<filter id="filter5_i_1_795" x="26.7412" y="39.9203" width="22.4727" height="13.2963" filterUnits="userSpaceOnUse" color-interpolation-filters="sRGB">
<feFlood flood-opacity="0" result="BackgroundImageFix"/>
<feBlend mode="normal" in="SourceGraphic" in2="BackgroundImageFix" result="shape"/>
<feColorMatrix in="SourceAlpha" type="matrix" values="0 0 0 0 0 0 0 0 0 0 0 0 0 0 0 0 0 0 127 0" result="hardAlpha"/>
<feOffset dx="0.25" dy="-0.25"/>
<feGaussianBlur stdDeviation="0.375"/>
<feComposite in2="hardAlpha" operator="arithmetic" k2="-1" k3="1"/>
<feColorMatrix type="matrix" values="0 0 0 0 0.941176 0 0 0 0 0.643137 0 0 0 0 0.215686 0 0 0 1 0"/>
<feBlend mode="normal" in2="shape" result="effect1_innerShadow_1_795"/>
</filter>
<filter id="filter6_f_1_795" x="31.4448" y="44.126" width="15.9609" height="4.47876" filterUnits="userSpaceOnUse" color-interpolation-filters="sRGB">
<feFlood flood-opacity="0" result="BackgroundImageFix"/>
<feBlend mode="normal" in="SourceGraphic" in2="BackgroundImageFix" result="shape"/>
<feGaussianBlur stdDeviation="0.3125" result="effect1_foregroundBlur_1_795"/>
</filter>
<filter id="filter7_i_1_795" x="26.7412" y="30.1838" width="22.3745" height="13.0097" filterUnits="userSpaceOnUse" color-interpolation-filters="sRGB">
<feFlood flood-opacity="0" result="BackgroundImageFix"/>
<feBlend mode="normal" in="SourceGraphic" in2="BackgroundImageFix" result="shape"/>
<feColorMatrix in="SourceAlpha" type="matrix" values="0 0 0 0 0 0 0 0 0 0 0 0 0 0 0 0 0 0 127 0" result="hardAlpha"/>
<feOffset dx="0.25" dy="-0.25"/>
<feGaussianBlur stdDeviation="0.375"/>
<feComposite in2="hardAlpha" operator="arithmetic" k2="-1" k3="1"/>
<feColorMatrix type="matrix" values="0 0 0 0 0.941176 0 0 0 0 0.643137 0 0 0 0 0.215686 0 0 0 1 0"/>
<feBlend mode="normal" in2="shape" result="effect1_innerShadow_1_795"/>
</filter>
<filter id="filter8_f_1_795" x="30.6226" y="21.5838" width="14.6724" height="6.75372" filterUnits="userSpaceOnUse" color-interpolation-filters="sRGB">
<feFlood flood-opacity="0" result="BackgroundImageFix"/>
<feBlend mode="normal" in="SourceGraphic" in2="BackgroundImageFix" result="shape"/>
<feGaussianBlur stdDeviation="0.3125" result="effect1_foregroundBlur_1_795"/>
</filter>
<filter id="filter9_f_1_795" x="30.4673" y="31.375" width="16.939" height="6.75372" filterUnits="userSpaceOnUse" color-interpolation-filters="sRGB">
<feFlood flood-opacity="0" result="BackgroundImageFix"/>
<feBlend mode="normal" in="SourceGraphic" in2="BackgroundImageFix" result="shape"/>
<feGaussianBlur stdDeviation="0.3125" result="effect1_foregroundBlur_1_795"/>
</filter>
<filter id="filter10_f_1_795" x="22.5156" y="3.1825" width="7.51709" height="18.7434" filterUnits="userSpaceOnUse" color-interpolation-filters="sRGB">
<feFlood flood-opacity="0" result="BackgroundImageFix"/>
<feBlend mode="normal" in="SourceGraphic" in2="BackgroundImageFix" result="shape"/>
<feGaussianBlur stdDeviation="0.3125" result="effect1_foregroundBlur_1_795"/>
</filter>
<linearGradient id="paint0_linear_1_795" x1="32.118" y1="11.5228" x2="10.1052" y2="57.8716" gradientUnits="userSpaceOnUse">
<stop stop-color="#FFCA44"/>
<stop offset="1" stop-color="#F8A528"/>
</linearGradient>
<radialGradient id="paint1_radial_1_795" cx="0" cy="0" r="1" gradientUnits="userSpaceOnUse" gradientTransform="translate(34.7128 7.59851) rotate(141.116) scale(10.9717 32.3824)">
<stop stop-color="#FFE34C"/>
<stop offset="1" stop-color="#FFE34C" stop-opacity="0"/>
</radialGradient>
<radialGradient id="paint2_radial_1_795" cx="0" cy="0" r="1" gradientUnits="userSpaceOnUse" gradientTransform="translate(14.7375 31.508) rotate(125.191) scale(16.2536 11.7743)">
<stop stop-color="#FFCA2E"/>
<stop offset="1" stop-color="#FFCA2E" stop-opacity="0"/>
</radialGradient>
<radialGradient id="paint3_radial_1_795" cx="0" cy="0" r="1" gradientUnits="userSpaceOnUse" gradientTransform="translate(32.3718 36.6616) rotate(146.743) scale(35.4171 61.9813)">
<stop offset="0.681" stop-color="#E18E3F" stop-opacity="0"/>
<stop offset="1" stop-color="#E18E3F"/>
</radialGradient>
<linearGradient id="paint4_linear_1_795" x1="21.0405" y1="52.9169" x2="21.0405" y2="64.0753" gradientUnits="userSpaceOnUse">
<stop stop-color="#D8796F" stop-opacity="0"/>
<stop offset="1" stop-color="#D8796F"/>
</linearGradient>
<linearGradient id="paint5_linear_1_795" x1="33.9686" y1="23.5934" x2="33.9686" y2="52.6609" gradientUnits="userSpaceOnUse">
<stop stop-color="#D1730B"/>
<stop offset="1" stop-color="#E27D47"/>
</linearGradient>
<linearGradient id="paint6_linear_1_795" x1="46.7812" y1="26.8375" x2="26.9975" y2="26.8375" gradientUnits="userSpaceOnUse">
<stop stop-color="#FFDB44"/>
<stop offset="1" stop-color="#F9A928"/>
</linearGradient>
<radialGradient id="paint7_radial_1_795" cx="0" cy="0" r="1" gradientUnits="userSpaceOnUse" gradientTransform="translate(30.2153 32.4813) rotate(-142.633) scale(5.07741 3.39866)">
<stop stop-color="#D98320"/>
<stop offset="1" stop-color="#D98320" stop-opacity="0"/>
</radialGradient>
<linearGradient id="paint8_linear_1_795" x1="44.427" y1="55.7256" x2="26.7411" y2="55.7256" gradientUnits="userSpaceOnUse">
<stop stop-color="#FFDB44"/>
<stop offset="1" stop-color="#F9A928"/>
</linearGradient>
<radialGradient id="paint9_radial_1_795" cx="0" cy="0" r="1" gradientUnits="userSpaceOnUse" gradientTransform="translate(30.6676 61.9206) scale(15.9982 6.08611)">
<stop stop-color="#F29545"/>
<stop offset="1" stop-color="#F29545" stop-opacity="0"/>
</radialGradient>
<radialGradient id="paint10_radial_1_795" cx="0" cy="0" r="1" gradientUnits="userSpaceOnUse" gradientTransform="translate(29.8998 51.705) scale(16.2245 4.35522)">
<stop stop-color="#DA810B"/>
<stop offset="1" stop-color="#FFB610" stop-opacity="0"/>
</radialGradient>
<linearGradient id="paint11_linear_1_795" x1="36.4317" y1="63.1981" x2="36.4317" y2="59.1906" gradientUnits="userSpaceOnUse">
<stop stop-color="#DC7C6A"/>
<stop offset="1" stop-color="#DC7C6A" stop-opacity="0"/>
</linearGradient>
<radialGradient id="paint12_radial_1_795" cx="0" cy="0" r="1" gradientUnits="userSpaceOnUse" gradientTransform="translate(24.1751 55.7256) scale(12.2571 18.4247)">
<stop stop-color="#E38811"/>
<stop offset="1" stop-color="#E38811" stop-opacity="0"/>
</radialGradient>
<linearGradient id="paint13_linear_1_795" x1="44.0594" y1="54.1003" x2="31.396" y2="54.1003" gradientUnits="userSpaceOnUse">
<stop stop-color="#FFF166"/>
<stop offset="1" stop-color="#FFF166" stop-opacity="0"/>
</linearGradient>
<linearGradient id="paint14_linear_1_795" x1="47.017" y1="46.6935" x2="26.7411" y2="46.6935" gradientUnits="userSpaceOnUse">
<stop stop-color="#FFDB44"/>
<stop offset="1" stop-color="#F9A928"/>
</linearGradient>
<radialGradient id="paint15_radial_1_795" cx="0" cy="0" r="1" gradientUnits="userSpaceOnUse" gradientTransform="translate(31.2429 53.2166) scale(18.3426 6.40865)">
<stop stop-color="#F29545"/>
<stop offset="1" stop-color="#F29545" stop-opacity="0"/>
</radialGradient>
<radialGradient id="paint16_radial_1_795" cx="0" cy="0" r="1" gradientUnits="userSpaceOnUse" gradientTransform="translate(30.3614 42.4607) scale(18.602 4.58605)">
<stop stop-color="#DA810B"/>
<stop offset="1" stop-color="#FFB610" stop-opacity="0"/>
</radialGradient>
<linearGradient id="paint17_linear_1_795" x1="46.0151" y1="45.6347" x2="30.1601" y2="45.6347" gradientUnits="userSpaceOnUse">
<stop stop-color="#FFF166"/>
<stop offset="1" stop-color="#FFF166" stop-opacity="0"/>
</linearGradient>
<linearGradient id="paint18_linear_1_795" x1="48.8657" y1="36.8147" x2="26.7435" y2="36.8147" gradientUnits="userSpaceOnUse">
<stop stop-color="#FFDB44"/>
<stop offset="1" stop-color="#F9A928"/>
</linearGradient>
<radialGradient id="paint19_radial_1_795" cx="0" cy="0" r="1" gradientUnits="userSpaceOnUse" gradientTransform="translate(31.3176 41.6513) scale(12.0327 5.35603)">
<stop stop-color="#F29545"/>
<stop offset="1" stop-color="#F29545" stop-opacity="0"/>
</radialGradient>
<radialGradient id="paint20_radial_1_795" cx="0" cy="0" r="1" gradientUnits="userSpaceOnUse" gradientTransform="translate(17.4247 7.59626) rotate(90) scale(13.9128 5.16563)">
<stop stop-color="#F3A52A"/>
<stop offset="1" stop-color="#F3A52A" stop-opacity="0"/>
</radialGradient>
<radialGradient id="paint21_radial_1_795" cx="0" cy="0" r="1" gradientUnits="userSpaceOnUse" gradientTransform="translate(13.3625 16.7575) rotate(42.9975) scale(6.96866 10.5447)">
<stop stop-color="#CDA25E"/>
<stop offset="1" stop-color="#CDA25E" stop-opacity="0"/>
</radialGradient>
<radialGradient id="paint22_radial_1_795" cx="0" cy="0" r="1" gradientUnits="userSpaceOnUse" gradientTransform="translate(20.5953 6.73638) rotate(-168.366) scale(3.58632 7.82795)">
<stop offset="0.55" stop-color="#CCB28B" stop-opacity="0"/>
<stop offset="1" stop-color="#CCB28B"/>
</radialGradient>
<linearGradient id="paint23_linear_1_795" x1="43.9722" y1="23.7182" x2="29.5041" y2="23.7182" gradientUnits="userSpaceOnUse">
<stop stop-color="#FFF166"/>
<stop offset="1" stop-color="#FFF166" stop-opacity="0"/>
</linearGradient>
<linearGradient id="paint24_linear_1_795" x1="45.9651" y1="33.5094" x2="29.0535" y2="33.5094" gradientUnits="userSpaceOnUse">
<stop stop-color="#FFF166"/>
<stop offset="1" stop-color="#FFF166" stop-opacity="0"/>
</linearGradient>
<linearGradient id="paint25_linear_1_795" x1="29.0841" y1="8.60468" x2="22.3269" y2="8.60468" gradientUnits="userSpaceOnUse">
<stop stop-color="#FFF166"/>
<stop offset="1" stop-color="#FFF166" stop-opacity="0"/>
</linearGradient>
</defs>
</svg>
