<svg width="20" height="20" viewBox="0 0 20 20" fill="none" xmlns="http://www.w3.org/2000/svg">
<path d="M9.26659 5.79995V7.96245C9.27227 8.22583 9.1983 8.48479 9.05437 8.70545C8.91044 8.9261 8.70325 9.09816 8.45992 9.19911C8.2983 9.26643 8.125 9.30126 7.94992 9.30161H5.78325C5.43371 9.30163 5.09832 9.16352 4.85015 8.91737C4.60197 8.67122 4.46111 8.33698 4.45825 7.98745V5.82495C4.45803 5.651 4.49217 5.47873 4.55871 5.31801C4.62525 5.1573 4.72288 5.01131 4.846 4.88842C4.96911 4.76554 5.11529 4.66819 5.27613 4.60195C5.43697 4.53571 5.60931 4.5019 5.78325 4.50245H7.94992C8.29517 4.50455 8.62597 4.64132 8.87189 4.88366C9.11781 5.126 9.25943 5.45476 9.26659 5.79995ZM9.26659 12.0458V14.2083C9.26703 14.5582 9.12864 14.8939 8.88179 15.1419C8.63494 15.3898 8.29979 15.5297 7.94992 15.5308H5.78325C5.43227 15.5308 5.09563 15.3915 4.84722 15.1436C4.59881 14.8956 4.45892 14.5593 4.45825 14.2083V12.0458C4.46002 11.6959 4.60053 11.361 4.84894 11.1146C5.09736 10.8683 5.43338 10.7305 5.78325 10.7316H7.94992C8.29869 10.7316 8.63321 10.87 8.88006 11.1164C9.12691 11.3628 9.26592 11.697 9.26659 12.0458ZM15.5499 5.79995V7.96245C15.5549 8.30951 15.423 8.64458 15.1829 8.89519C14.9427 9.14579 14.6135 9.2918 14.2666 9.30161H12.1083C11.7587 9.30163 11.4233 9.16352 11.1751 8.91737C10.927 8.67122 10.7861 8.33698 10.7833 7.98745V5.82495C10.783 5.651 10.8172 5.47873 10.8837 5.31801C10.9503 5.1573 11.0479 5.01131 11.171 4.88842C11.2941 4.76554 11.4403 4.66819 11.6011 4.60195C11.762 4.53571 11.9343 4.5019 12.1083 4.50245H14.2666C14.606 4.51306 14.9284 4.65359 15.1672 4.89504C15.406 5.13649 15.543 5.46042 15.5499 5.79995ZM15.5499 12.0624V14.2249C15.5505 14.5691 15.4167 14.9 15.177 15.147C14.9373 15.394 14.6106 15.5377 14.2666 15.5474H12.1083C11.7573 15.5474 11.4206 15.4082 11.1722 15.1602C10.9238 14.9123 10.7839 14.5759 10.7833 14.2249V12.0624C10.7852 11.7126 10.9258 11.3779 11.1742 11.1316C11.4225 10.8852 11.7584 10.7474 12.1083 10.7483H14.2666C14.6089 10.759 14.9337 10.9019 15.1729 11.1469C15.4122 11.3919 15.5473 11.72 15.5499 12.0624Z" fill="#090909"/>
<path d="M17.7084 8.07913C17.5435 8.07697 17.3859 8.01055 17.2692 7.89398C17.1525 7.77741 17.0858 7.6199 17.0834 7.45496V4.88496C17.0894 4.62455 17.0422 4.36566 16.9448 4.1241C16.8474 3.88253 16.7017 3.66336 16.5168 3.47996C16.1507 3.11792 15.6567 2.91464 15.1418 2.91413H12.6001C12.4346 2.91413 12.2759 2.84851 12.1588 2.73166C12.0416 2.61481 11.9756 2.45626 11.9751 2.29079C11.9753 2.12518 12.0413 1.96642 12.1585 1.84939C12.2756 1.73236 12.4345 1.66663 12.6001 1.66663H15.1668C16.0112 1.68791 16.8134 2.04052 17.4001 2.64829C17.6969 2.94355 17.9322 3.29472 18.0924 3.6815C18.2526 4.06828 18.3345 4.48298 18.3334 4.90163V7.47163C18.3289 7.63433 18.261 7.78885 18.1443 7.9023C18.0276 8.01575 17.8712 8.07919 17.7084 8.07913ZM15.1418 18.3333H12.6001C12.4346 18.3333 12.2759 18.2677 12.1588 18.1508C12.0416 18.034 11.9756 17.8754 11.9751 17.71C11.9753 17.5443 12.0413 17.3856 12.1585 17.2686C12.2756 17.1515 12.4345 17.0858 12.6001 17.0858H15.1668C15.5511 17.0827 15.9258 16.9652 16.243 16.7482C16.5602 16.5312 16.8055 16.2245 16.9476 15.8675C17.0419 15.6309 17.0881 15.3779 17.0834 15.1233V12.5783C17.0837 12.4127 17.1496 12.2539 17.2668 12.1369C17.384 12.0199 17.5428 11.9541 17.7084 11.9541C17.8741 11.9541 18.0329 12.0199 18.1501 12.1369C18.2673 12.2539 18.3332 12.4127 18.3334 12.5783V15.1233C18.335 15.7543 18.1485 16.3714 17.7978 16.896C17.4471 17.4205 16.948 17.8286 16.3643 18.0683C15.9768 18.2275 15.5609 18.31 15.1418 18.3083V18.3333ZM7.43344 18.3333H4.86678C4.44537 18.333 4.02814 18.2497 3.63894 18.0881C3.24973 17.9265 2.89617 17.6899 2.59844 17.3916C2.30137 17.0937 2.06612 16.74 1.90623 16.3509C1.74634 15.9617 1.66496 15.5448 1.66678 15.1241V12.5791C1.667 12.4135 1.73294 12.2548 1.85013 12.1377C1.96732 12.0207 2.12616 11.955 2.29178 11.955C2.45739 11.955 2.61624 12.0207 2.73343 12.1377C2.85061 12.2548 2.91656 12.4135 2.91678 12.5791V15.1241C2.91876 15.6395 3.12525 16.1331 3.49087 16.4964C3.85649 16.8596 4.35136 17.063 4.86678 17.0616H7.43344C7.59906 17.0616 7.75791 17.1274 7.87509 17.2444C7.99228 17.3614 8.05822 17.5202 8.05844 17.6858C8.05856 17.7678 8.04245 17.8491 8.01106 17.9248C7.97967 18.0006 7.93361 18.0695 7.87553 18.1274C7.81745 18.1853 7.74849 18.2312 7.67263 18.2624C7.59676 18.2936 7.51547 18.3095 7.43344 18.3091V18.3333ZM2.29178 8.07913C2.12683 8.07697 1.96923 8.01055 1.85251 7.89398C1.73579 7.77741 1.66915 7.6199 1.66678 7.45496V4.88496C1.66899 4.04514 2.00472 3.24059 2.60011 2.64829C3.20108 2.05284 4.01244 1.71812 4.85844 1.71663H7.42511C7.59073 1.71663 7.74957 1.78236 7.86676 1.89939C7.98394 2.01642 8.04989 2.17518 8.05011 2.34079C8.04967 2.50626 7.98363 2.66481 7.86646 2.78166C7.7493 2.89851 7.59058 2.96413 7.42511 2.96413H4.85844C4.34296 2.96258 3.84797 3.16581 3.48229 3.52914C3.11662 3.89247 2.91021 4.38614 2.90844 4.90163V7.47163C2.90394 7.6329 2.83724 7.78619 2.72231 7.89942C2.60737 8.01264 2.4531 8.07704 2.29178 8.07913Z" fill="#090909"/>
</svg>
